<svg width="131" height="13" viewBox="0 0 131 13" fill="none" xmlns="http://www.w3.org/2000/svg"><path d="M6.804 6.664c0-1.716-1.02-2.964-2.436-2.964-.66 0-1.176.276-1.788.984h-.072V.76h-.12l-2.112.576v.048l.66.6v7.86a7.878 7.878 0 002.208.348c2.16 0 3.66-1.452 3.66-3.528zm-1.5.708c0 1.452-.72 2.34-1.812 2.34-.408 0-.756-.12-.984-.288V5.128c.204-.264.504-.432.9-.432 1.104 0 1.896 1.128 1.896 2.676zm4.507 2.808c.744 0 1.44-.36 2.1-1.092h.072l.144 1.092 2.004-.492v-.06l-.612-.564V3.7h-.12l-2.112.576v.06l.66.6v3.72c-.456.384-.876.576-1.296.576-.612 0-.972-.384-.972-1.02V3.688h-.12l-2.112.576v.06l.66.6V8.56c0 .948.684 1.62 1.704 1.62zm6.603-7.728c.54 0 .9-.324.9-.852s-.36-.84-.9-.84c-.552 0-.912.312-.912.84s.36.852.912.852zM17.758 10v-.048l-.564-.552V3.7h-.12l-2.112.576v.048l.66.6V9.4l-.552.552V10h2.688zm3.68 0v-.06l-.564-.552V.76h-.12l-2.112.576v.048l.66.6v7.404l-.552.552V10h2.688zm.908-2.76c0 1.716 1.02 2.952 2.46 2.952.672 0 1.152-.276 1.776-1.008h.072l.132.996 2.04-.48v-.06l-.624-.588V.76h-.12l-2.112.576v.048l.66.612V3.88c-.204-.096-.612-.18-1.032-.18-1.836 0-3.252 1.524-3.252 3.54zm1.5-.732c0-1.452.708-2.34 1.8-2.34.396 0 .756.108.984.288v4.296a1.093 1.093 0 01-.9.432c-1.104 0-1.884-1.128-1.884-2.676zm10.398 3.672c1.56 0 2.556-.828 2.556-2.112 0-2.076-3.108-1.5-3.108-3.012 0-.576.42-.972 1.02-.972.156 0 .3.024.408.072l1.272 1.08h.06V4.024c-.408-.192-1.104-.324-1.692-.324-1.452 0-2.412.804-2.412 1.992 0 2.088 3.096 1.512 3.096 3.024 0 .636-.456 1.068-1.104 1.068-.168 0-.348-.036-.504-.12l-1.572-1.272h-.06v1.356c.42.228 1.38.432 2.04.432zm5.471 0c.828 0 1.56-.456 1.908-1.2l-.048-.036c-.276.24-.612.372-.936.372-.504 0-.852-.288-.852-.924V4.48h1.56l.084-.6h-1.644V2.656h-.204L37.387 4.42v.06h.828v4.632c.168.744.804 1.068 1.5 1.068zm3.095-.78l-.552.54V10h2.76v-.06l-.636-.54V5.452c.156-.36.6-.672.9-.672.036 0 .072 0 .108.012l1.128.756h.06V3.856c-.108-.096-.336-.156-.588-.156-.588 0-1.044.348-1.584 1.236h-.06L44.262 3.7h-.12l-1.992.564v.048l.66.6V9.4zm7.215.78c1.848 0 3.12-1.368 3.12-3.312 0-1.896-1.212-3.168-3-3.168-1.848 0-3.108 1.368-3.108 3.312 0 1.896 1.2 3.168 2.988 3.168zm.204-.456c-.948 0-1.572-1.212-1.572-3.108 0-1.608.468-2.472 1.284-2.472.948 0 1.584 1.212 1.584 3.108 0 1.608-.48 2.472-1.296 2.472zm5.954-4.512c.456-.384.9-.564 1.332-.564.624 0 1.008.384 1.008 1.008v3.72l-.564.564V10h2.688v-.06l-.552-.54V5.32c0-.96-.708-1.62-1.74-1.62-.768 0-1.476.36-2.136 1.092h-.072L56.063 3.7h-.12l-1.992.552v.06l.66.6V9.4l-.552.54V10h2.688v-.06l-.564-.54V5.212zm7.825 7.188c1.908 0 3.36-.996 3.36-2.316 0-.624-.312-1.14-.804-1.296h-3.12c-.492 0-.816-.276-.816-.672 0-.24.144-.444.396-.552.3.096.624.144.972.144 1.452 0 2.568-.9 2.568-2.016 0-.6-.324-1.14-.876-1.404l.012-.048 1.404.372h.06v-.936h-.06l-1.656.348a3.053 3.053 0 00-1.392-.324c-1.404 0-2.508.912-2.508 2.064 0 .756.48 1.38 1.224 1.704v.024c-.696.192-1.152.708-1.152 1.344 0 .456.24.804.6.996v.048l-.768.324c-.12.108-.18.3-.18.528 0 .96 1.14 1.668 2.736 1.668zm.144-5.076c-.648 0-1.08-.66-1.08-1.788 0-.948.312-1.452.888-1.452.66 0 1.092.672 1.092 1.788 0 .948-.312 1.452-.9 1.452zm-1.908 3.132c0-.216.06-.408.168-.528.18.06.372.096.588.096h2.508c.504 0 .744.204.744.624 0 .768-.816 1.296-1.896 1.296-1.2 0-2.112-.648-2.112-1.488zm14.51-3.792c0-1.716-1.02-2.964-2.437-2.964-.66 0-1.176.276-1.788.984h-.072V.76h-.12l-2.112.576v.048l.66.6v7.86a7.878 7.878 0 002.208.348c2.16 0 3.66-1.452 3.66-3.528zm-1.5.708c0 1.452-.72 2.34-1.813 2.34-.408 0-.756-.12-.984-.288V5.128c.204-.264.504-.432.9-.432 1.104 0 1.896 1.128 1.896 2.676zm4.506 2.808c.744 0 1.44-.36 2.1-1.092h.072l.144 1.092 2.004-.492v-.06l-.612-.564V3.7h-.12l-2.112.576v.06l.66.6v3.72c-.456.384-.876.576-1.296.576-.612 0-.972-.384-.972-1.02V3.688h-.12l-2.112.576v.06l.66.6V8.56c0 .948.684 1.62 1.704 1.62zm7.324 0c1.56 0 2.556-.828 2.556-2.112 0-2.076-3.108-1.5-3.108-3.012 0-.576.42-.972 1.02-.972.156 0 .3.024.408.072l1.272 1.08h.06V4.024c-.408-.192-1.104-.324-1.692-.324-1.452 0-2.412.804-2.412 1.992 0 2.088 3.096 1.512 3.096 3.024 0 .636-.456 1.068-1.104 1.068-.168 0-.348-.036-.504-.12l-1.572-1.272h-.06v1.356c.42.228 1.38.432 2.04.432zm4.81-7.728c.54 0 .9-.324.9-.852s-.36-.84-.9-.84c-.551 0-.911.312-.911.84s.36.852.912.852zM93.24 10v-.048l-.564-.552V3.7h-.12l-2.112.576v.048l.66.6V9.4l-.552.552V10h2.688zm3.116-4.788c.456-.384.9-.564 1.332-.564.624 0 1.008.384 1.008 1.008v3.72l-.564.564V10h2.688v-.06l-.552-.54V5.32c0-.96-.708-1.62-1.74-1.62-.768 0-1.476.36-2.136 1.092h-.072L96.235 3.7h-.12l-1.992.552v.06l.66.6V9.4l-.552.54V10h2.688v-.06l-.564-.54V5.212zm8.149 4.968c1.452 0 2.472-.888 2.748-2.364l-.06-.036c-.504.84-1.212 1.272-2.064 1.272-1.32 0-2.196-1.02-2.268-2.604h4.308c-.324-1.812-1.212-2.748-2.604-2.748-1.704 0-2.988 1.428-2.988 3.348 0 1.872 1.2 3.132 2.928 3.132zm-.252-6.036c.732 0 1.164.552 1.416 1.896h-2.808c.06-1.212.564-1.896 1.392-1.896zm5.824 6.036c1.56 0 2.556-.828 2.556-2.112 0-2.076-3.108-1.5-3.108-3.012 0-.576.42-.972 1.02-.972.156 0 .3.024.408.072l1.272 1.08h.06V4.024c-.408-.192-1.104-.324-1.692-.324-1.452 0-2.412.804-2.412 1.992 0 2.088 3.096 1.512 3.096 3.024 0 .636-.456 1.068-1.104 1.068-.168 0-.348-.036-.504-.12l-1.572-1.272h-.06v1.356c.42.228 1.38.432 2.04.432zm5.531 0c1.56 0 2.556-.828 2.556-2.112 0-2.076-3.108-1.5-3.108-3.012 0-.576.42-.972 1.02-.972.156 0 .3.024.408.072l1.272 1.08h.06V4.024c-.408-.192-1.104-.324-1.692-.324-1.452 0-2.412.804-2.412 1.992 0 2.088 3.096 1.512 3.096 3.024 0 .636-.456 1.068-1.104 1.068-.168 0-.348-.036-.504-.12l-1.572-1.272h-.06v1.356c.42.228 1.38.432 2.04.432zm6.311 0c1.452 0 2.472-.888 2.748-2.364l-.06-.036c-.504.84-1.212 1.272-2.064 1.272-1.32 0-2.196-1.02-2.268-2.604h4.308c-.324-1.812-1.212-2.748-2.604-2.748-1.704 0-2.988 1.428-2.988 3.348 0 1.872 1.2 3.132 2.928 3.132zm-.252-6.036c.732 0 1.164.552 1.416 1.896h-2.808c.06-1.212.564-1.896 1.392-1.896zm5.824 6.036c1.56 0 2.556-.828 2.556-2.112 0-2.076-3.108-1.5-3.108-3.012 0-.576.42-.972 1.02-.972.156 0 .3.024.408.072l1.272 1.08h.06V4.024c-.408-.192-1.104-.324-1.692-.324-1.452 0-2.412.804-2.412 1.992 0 2.088 3.096 1.512 3.096 3.024 0 .636-.456 1.068-1.104 1.068-.168 0-.348-.036-.504-.12l-1.572-1.272h-.06v1.356c.42.228 1.38.432 2.04.432z" fill="#fff"/></svg>