<svg width="120" height="13" viewBox="0 0 120 13" fill="none" xmlns="http://www.w3.org/2000/svg"><path d="M3.96 10.12c1.956 0 3.216-1.248 3.216-2.748 0-1.896-1.548-2.328-2.892-2.616-1.092-.252-1.968-.384-1.968-1.092 0-.576.408-1.044 1.356-1.044 1.008 0 1.596.42 2.052 1.092l1.38-1.08c-.888-.984-1.86-1.524-3.408-1.524C1.872 1.108.588 2.26.588 3.7c0 1.776 1.464 2.196 2.772 2.472 1.212.276 2.052.444 2.052 1.26 0 .636-.492 1.092-1.44 1.092-1.044 0-1.824-.468-2.4-1.38L.096 8.32c.828 1.056 1.98 1.8 3.864 1.8zm3.652-5.136h1.2v2.724c0 1.764.792 2.412 2.148 2.412.6 0 1.128-.18 1.548-.492l-.756-1.296c-.192.168-.372.24-.6.24-.42 0-.708-.24-.708-.924V4.984h1.704V3.52h-1.704V1.156l-1.632.96V3.52h-1.2v1.464zM13.246 10h1.644V6.58c0-1.092.552-1.524 1.404-1.524.372 0 .684.096.864.228l.6-1.632a2.405 2.405 0 00-1.092-.252c-.828 0-1.476.348-1.788 1.116V3.52h-1.632V10zm8.044.132c1.956 0 3.432-1.512 3.432-3.372 0-1.872-1.5-3.372-3.432-3.372-1.944 0-3.42 1.5-3.42 3.372 0 1.86 1.476 3.372 3.42 3.372zm.012-1.572c-.996 0-1.776-.804-1.776-1.812s.78-1.812 1.776-1.812c.984 0 1.776.804 1.776 1.812s-.792 1.812-1.776 1.812zM25.808 10h1.668V6.424c0-1.008.6-1.584 1.38-1.584.876 0 1.32.576 1.32 1.5V10h1.692V6.088c0-1.692-.972-2.7-2.508-2.7-.804 0-1.476.36-1.896.948V3.52h-1.656V10zm10.252.096c.84 0 1.584-.384 2.04-1.02v.492c0 1.02-.744 1.728-1.788 1.728-.852 0-1.332-.312-1.764-.876l-1.368 1.068c.732.852 1.704 1.284 3.18 1.284 1.992 0 3.396-1.368 3.396-3.252v-6H38.1v.852c-.432-.6-1.152-.984-2.016-.984-1.656 0-3.144 1.308-3.144 3.36 0 2.052 1.524 3.348 3.12 3.348zm.324-1.536c-.996 0-1.8-.804-1.8-1.824 0-1.032.804-1.824 1.8-1.824 1.02 0 1.8.804 1.8 1.824s-.78 1.824-1.8 1.824zM43.867 10h1.644V6.58c0-1.092.552-1.524 1.404-1.524.372 0 .684.096.864.228l.6-1.632a2.405 2.405 0 00-1.092-.252c-.828 0-1.476.348-1.788 1.116V3.52h-1.632V10zm8.056.132c1.428 0 2.34-.588 2.988-1.5l-1.356-.792c-.324.528-.84.864-1.608.864-.96 0-1.644-.528-1.86-1.368h5.148v-.624c0-1.92-1.404-3.324-3.348-3.324-1.932 0-3.396 1.5-3.396 3.384s1.344 3.36 3.432 3.36zm-.036-5.34c.864 0 1.488.444 1.704 1.248h-3.456c.264-.756.912-1.248 1.752-1.248zM56.324 10h1.656V.544h-1.656V10zm4.97.132c1.02 0 1.907-.456 2.375-1.128V10h1.596V6.016c0-1.632-1.092-2.628-3-2.628-1.452 0-2.4.612-3.06 1.476l1.524.756c.3-.54.792-.852 1.524-.852.936 0 1.404.48 1.404 1.176v.084h-1.704c-1.8 0-2.916.828-2.916 2.172 0 1.14.84 1.932 2.256 1.932zm.48-1.368c-.685 0-1.009-.24-1.009-.708 0-.504.396-.816 1.38-.816h1.524v.348c-.324.696-1.104 1.176-1.896 1.176zm4.186-3.78h1.2v2.724c0 1.764.792 2.412 2.148 2.412.6 0 1.128-.18 1.548-.492L70.1 8.332c-.192.168-.372.24-.6.24-.42 0-.708-.24-.708-.924V4.984h1.704V3.52h-1.704V1.156l-1.632.96V3.52h-1.2v1.464zM71.593 10h1.692V3.52h-1.692V10zm-.216-8.304c0 .612.432 1.056 1.056 1.056.636 0 1.068-.444 1.068-1.056 0-.624-.432-1.08-1.068-1.08-.612 0-1.056.456-1.056 1.08zm6.42 8.436c1.957 0 3.433-1.512 3.433-3.372 0-1.872-1.5-3.372-3.432-3.372-1.944 0-3.42 1.5-3.42 3.372 0 1.86 1.476 3.372 3.42 3.372zm.013-1.572c-.996 0-1.776-.804-1.776-1.812s.78-1.812 1.776-1.812c.984 0 1.776.804 1.776 1.812S78.794 8.56 77.81 8.56zM82.316 10h1.668V6.424c0-1.008.6-1.584 1.38-1.584.876 0 1.32.576 1.32 1.5V10h1.692V6.088c0-1.692-.972-2.7-2.508-2.7-.804 0-1.476.36-1.896.948V3.52h-1.656V10zm9.916.132c1.884.012 2.784-1.128 2.784-2.136 0-1.392-1.272-1.764-2.352-1.98-.948-.204-1.476-.312-1.476-.72 0-.36.312-.624.96-.624.6 0 1.008.252 1.272.684l1.512-.612c-.6-.864-1.416-1.38-2.784-1.38-1.596-.012-2.652.936-2.652 2.028 0 1.368 1.212 1.704 2.304 1.932.828.168 1.524.276 1.524.744 0 .384-.36.708-1.032.708-.684 0-1.2-.3-1.488-.876l-1.596.624c.516 1.032 1.488 1.608 3.024 1.608zM96.039 10h1.644V6.424c0-1.008.6-1.584 1.38-1.584.876 0 1.32.576 1.32 1.5V10h1.704V6.088c0-1.692-.984-2.7-2.52-2.7-.792 0-1.452.348-1.884.924V.544h-1.644V10zm7.324 0h1.692V3.52h-1.692V10zm-.216-8.304c0 .612.432 1.056 1.056 1.056.636 0 1.068-.444 1.068-1.056 0-.624-.432-1.08-1.068-1.08-.612 0-1.056.456-1.056 1.08zm6.888 8.436c1.596 0 3.108-1.308 3.108-3.372s-1.488-3.372-3.12-3.372c-.876 0-1.608.396-2.04 1.032v-.9h-1.632v9.072h1.644V9.208c.432.6 1.164.924 2.04.924zm-.336-1.56c-1.02 0-1.8-.816-1.8-1.824s.78-1.824 1.8-1.824c.996 0 1.788.804 1.788 1.824s-.792 1.824-1.788 1.824zm7.037 1.56c1.884.012 2.784-1.128 2.784-2.136 0-1.392-1.272-1.764-2.352-1.98-.948-.204-1.476-.312-1.476-.72 0-.36.312-.624.96-.624.6 0 1.008.252 1.272.684l1.512-.612c-.6-.864-1.416-1.38-2.784-1.38C115.056 3.352 114 4.3 114 5.392c0 1.368 1.212 1.704 2.304 1.932.828.168 1.524.276 1.524.744 0 .384-.36.708-1.032.708-.684 0-1.2-.3-1.488-.876l-1.596.624c.516 1.032 1.488 1.608 3.024 1.608z" fill="#fff"/></svg>