<svg width="36" height="5" viewBox="0 0 36 5" fill="none" xmlns="http://www.w3.org/2000/svg"><path d="M.68 4h.28V.83l1.404 1.92L3.824.795V4h.28V.35H3.83L2.37 2.295.964.35H.68V4zm5.59.055c.595 0 .98-.245 1.275-.72l-.255-.14c-.21.395-.54.6-1.025.6-.64 0-1.095-.435-1.14-1.03H7.63V2.62c0-.805-.58-1.375-1.36-1.375-.825 0-1.42.62-1.42 1.42 0 .795.545 1.39 1.42 1.39zm0-2.55c.605 0 1.015.405 1.065.995h-2.2c.075-.565.53-.995 1.135-.995zM8.34 4h.28V2.47c0-.58.4-.965.934-.965.545 0 .89.345.89.865V4h.28V2.425c0-.565.415-.92.93-.92.565 0 .93.385.93.91V4h.28V2.435c0-.71-.45-1.19-1.205-1.19-.505 0-.9.27-1.055.655-.14-.395-.495-.655-1.03-.655-.455 0-.795.225-.965.555v-.5h-.27V4zm6.711.055c.825 0 1.4-.595 1.4-1.405 0-.795-.605-1.405-1.39-1.405-.42 0-.88.225-1.1.625V.06h-.275V4h.27v-.575c.22.405.68.63 1.095.63zm0-.27c-.64 0-1.125-.505-1.125-1.135 0-.625.485-1.14 1.125-1.14.63 0 1.105.495 1.105 1.14 0 .665-.475 1.135-1.105 1.135zm3.421.27c.595 0 .98-.245 1.275-.72l-.255-.14c-.21.395-.54.6-1.025.6-.64 0-1.095-.435-1.14-1.03h2.505V2.62c0-.805-.58-1.375-1.36-1.375-.825 0-1.42.62-1.42 1.42 0 .795.545 1.39 1.42 1.39zm0-2.55c.605 0 1.015.405 1.065.995h-2.2c.075-.565.53-.995 1.135-.995zM20.542 4h.274V2.56c0-.7.27-1.035.785-1.035.14 0 .245.04.32.09l.135-.26a.933.933 0 00-.445-.095c-.425 0-.695.205-.81.58V1.3h-.26V4zm3.4 0h.29V2.41h2.02v-.275h-2.02V.625h2.02V.35h-2.31V4zm3.05 0h1.086c1.06 0 1.88-.785 1.88-1.825 0-1.035-.79-1.825-1.89-1.825h-1.075V4zM28.049.615c.955 0 1.615.675 1.615 1.56s-.69 1.555-1.605 1.555h-.775V.615h.765zM30.827 4h.285V.35h-.285V4zm3.029.05c.735 0 1.34-.395 1.66-.985l-.255-.13c-.26.5-.765.84-1.405.84-.89 0-1.58-.72-1.58-1.6 0-.88.69-1.605 1.58-1.605.59 0 1.09.325 1.36.795l.25-.145c-.33-.55-.925-.92-1.61-.92a1.876 1.876 0 000 3.75z" fill="#fff"/></svg>