<svg width="79" height="18" viewBox="0 0 79 18" fill="none" xmlns="http://www.w3.org/2000/svg"><path d="M32.865 13.67h-1.07v-.678h2.864v.678H33.6v3.127h-.734V13.67z" fill="#fff"/><path d="M34.205 15.39c0-.813.65-1.465 1.504-1.465.855 0 1.51.651 1.51 1.465 0 .813-.65 1.465-1.51 1.465s-1.504-.657-1.504-1.465zm2.29-.005a.781.781 0 10-1.562 0c0 .437.342.787.78.787.44 0 .782-.35.782-.787zM37.556 15.385c0-.892.654-1.46 1.382-1.46.38 0 .697.167.887.427v-.37h.728v2.606c0 .818-.618 1.412-1.493 1.412-.65 0-1.077-.188-1.399-.557l.602-.464c.19.245.4.38.776.38.459 0 .786-.307.786-.75v-.213c-.201.276-.528.443-.897.443-.702 0-1.372-.563-1.372-1.454zm2.306-.006a.781.781 0 00-.792-.792.778.778 0 00-.791.792c0 .449.354.793.791.793.438 0 .792-.35.792-.793zM40.927 15.395c0-.819.644-1.47 1.493-1.47.85 0 1.472.61 1.472 1.444v.27H41.63c.095.365.396.594.817.594.338 0 .565-.145.708-.375l.595.344c-.284.396-.686.651-1.313.651-.918 0-1.51-.64-1.51-1.459h.001zm.723-.318h1.519c-.095-.35-.37-.542-.75-.542a.781.781 0 00-.77.542zM44.066 13.982h.527v-.61l.718-.416v1.026h.75v.636h-.75v1.156c0 .298.127.402.311.402.1 0 .18-.032.264-.105l.333.563a1.134 1.134 0 01-.68.213c-.597 0-.945-.281-.945-1.047v-1.184h-.527v-.636l-.001.002zM46.515 12.69h.722v1.636c.19-.25.48-.4.829-.4.675 0 1.107.437 1.107 1.172v1.699h-.75v-1.59c0-.401-.194-.651-.58-.651-.342 0-.606.25-.606.688v1.553h-.723V12.69zM49.538 15.395c0-.819.644-1.47 1.493-1.47.85 0 1.472.61 1.472 1.444v.27H50.24c.094.365.395.594.817.594.337 0 .564-.145.707-.375l.596.344c-.285.396-.686.651-1.314.651-.918 0-1.509-.64-1.509-1.459zm.722-.318h1.52c-.095-.35-.37-.542-.75-.542a.781.781 0 00-.77.542zM52.872 13.982h.718v.433c.137-.333.422-.485.786-.485.19 0 .359.047.48.11l-.264.709a.675.675 0 00-.38-.1c-.374 0-.617.188-.617.663v1.485h-.723v-2.815zM56.278 16.797v-.027l.271-.235V14.24h-.412v-.028l.417-.3c.069-.814.531-1.404 1.112-1.404.113 0 .254.022.327.056v.595h-.028l-.717-.311c-.197.033-.36.362-.36.719 0 .29.13.417.417.417h.57l-.04.256h-.672v2.296l.367.235v.027h-1.252zM57.92 15.427c0-.886.581-1.527 1.41-1.527.83 0 1.343.59 1.343 1.454s-.58 1.527-1.41 1.527c-.829 0-1.343-.59-1.343-1.454zm2.11.1c0-.864-.322-1.432-.801-1.432-.418 0-.666.418-.666 1.16 0 .863.322 1.431.801 1.431.418 0 .666-.417.666-1.159zM61.266 14.44l-.322-.262v-.028l.835-.25h.05l.04.562h.029c.259-.4.474-.563.756-.563.124 0 .237.034.294.073v.696h-.029l-.502-.334c-.017-.005-.034-.005-.05-.005-.159 0-.401.172-.485.367v1.84l.293.233v.029h-1.18v-.028l.272-.235V14.44h-.001zM65.453 16.887c-.277 0-.643-.056-.97-.167v-3.667l-.317-.262v-.023l.88-.262h.057v1.844h.034c.287-.323.52-.451.83-.451.66 0 1.14.574 1.14 1.365 0 .948-.69 1.622-1.654 1.622zm.147-2.575c-.22 0-.39.094-.497.245v1.978a.89.89 0 00.503.14c.547 0 .914-.424.914-1.12 0-.697-.378-1.243-.92-1.243zM67.41 15.45c0-.887.593-1.55 1.366-1.55.62 0 1.032.434 1.184 1.254h-2.048c.012.769.435 1.27 1.072 1.27.407 0 .74-.211.982-.63l.029.017c-.13.663-.593 1.07-1.247 1.07-.79 0-1.337-.574-1.337-1.432zm.508-.474h1.439c-.13-.619-.344-.881-.711-.881-.412 0-.683.329-.728.88zM70.52 16.402v-2.163h-.401v-.028l.925-.752h.095v.524h.813l-.04.256h-.773v1.85c0 .3.152.44.4.44a.694.694 0 00.475-.2l.023.016a.942.942 0 01-.852.535c-.322 0-.593-.156-.666-.479zM72.511 16.402v-2.163h-.4v-.028l.925-.752h.096v.524h.812l-.04.256h-.773v1.85c0 .3.152.44.4.44a.694.694 0 00.475-.2l.023.016a.942.942 0 01-.852.535c-.322 0-.593-.156-.666-.479zM74.193 15.45c0-.887.593-1.55 1.365-1.55.62 0 1.032.434 1.185 1.254h-2.048c.011.769.434 1.27 1.072 1.27.406 0 .739-.211.982-.63l.028.017c-.13.663-.593 1.07-1.247 1.07-.79 0-1.337-.574-1.337-1.432zm.508-.474h1.438c-.13-.619-.344-.881-.711-.881-.412 0-.683.329-.728.88zM77.318 14.44l-.322-.262v-.028l.836-.25h.05l.04.562h.028c.26-.4.474-.563.756-.563.124 0 .237.034.294.073v.696h-.028l-.503-.334c-.016-.005-.033-.005-.05-.005-.158 0-.4.172-.485.367v1.84l.294.233v.029h-1.18v-.028l.271-.235V14.44zM57.274 4.629c.417-.004 1.13.09 1.13.624-.004.537-.574.913-1.13.932V4.628zm-.004 2.17c.722-.038 1.32.243 1.325.736-.003.531-.722.88-1.33.929L57.27 6.8zm-.842 2.423c2.329-.004 3.564-.884 3.568-1.739.002-.684-.73-1.038-1.287-1.132v-.048c.854-.357 1.016-.848 1.017-1.133-.002-.412-.189-1.018-1.876-1.19-.52-.037-1.023-.075-1.918-.072.05.168.05 1.449.048 1.682l-.001.841c-.002.143-.003 2.394-.052 2.787l.5.005zm12.154.061c-.024-.262.025-3.024.025-3.268.1.124 3.493 2.945 4.13 3.357l.048-.016c.02-.66.099-1.811.145-2.886.078-1.096.13-2.115.181-2.55l-1.28-.05c0 .318-.033 2.938-.033 3.25-.265-.213-3.373-2.817-4.117-3.363l-.054.024c-.051.453-.134 1.676-.207 2.86-.04 1.184-.12 2.32-.147 2.606l1.309.037zm6.964.028c-.026-.148-.05-1.842-.05-2.408l.003-.266.054.002c.493.644 2.308 2.571 2.404 2.698L79 8.451c-.287-.305-1.781-1.696-2.069-1.983.426-.397 1.61-1.448 1.93-1.76l-.967-.84c-.168.204-1.911 1.986-2.344 2.485l-.052-.004v-.251c.002-.674.033-2.123.055-2.246h-1.428c-.003.168.021 1.665.021 2.31l-.001.815c-.004.846-.029 2.122-.031 2.333l1.432.001zM9.43 9.724l1.74.739-.21.5-1.608-.537-1.61.823-1.493-.65-1.538.744-1.658-.782-1.572.637-.259-.476 1.732-.84 1.916.67 1.328-.705 1.36.632 1.873-.755H9.43zm-3.287-8.47l2.056 2.113-1.853-.298L8.818 5.49l-2.636-.53L8.71 7.423 5.846 6.82l.383 2.314-1.192-.001.316-2.277-2.141 1.187 1.7-2.98-1.866.932 2.249-3.178-1.4.365 2.248-1.927zM1.026 0L.448.039.016 3.086l.107 3.726-.058 3.675L0 12.998l3.41-.036 4.578.095 3.141-.242 1.264-.14-.104-5.401-.405-3.196.22-3.62-7.83-.412L1.025 0zm20.588 5.19l.004-1.238-1.358-.003c.023.261.062.736.059 1.241v.265c-.002 1.353-.026 1.887-.304 2.292a1.127 1.127 0 01-.949.476c-.354-.002-.694-.128-.91-.448-.29-.393-.357-.908-.353-2.014l.002-.475c.003-.657.026-1.048.065-1.225l-1.4.002v1.055l-.002.385c0 1.766.121 2.295.497 2.829.557.782 1.46.876 2.005.878.838 0 1.504-.256 1.991-.79.57-.658.65-1.503.654-2.895l-.002-.334zm1.332 4.113c.112-.306.928-2.68 1.067-3.012h.01c.135.291 1.002 1.741 1.541 2.55l.033-.002c.488-.616 1.627-2.375 1.8-2.58.087.168.973 2.467 1.234 3.043l1.174-.493c-.268-.538-1.725-3.904-2.155-4.772l-.035.002c-.31.46-1.609 2.536-1.894 2.932-.227-.349-1.482-2.471-1.862-3.096l-.045.003c-.284.623-1.875 4.73-2.021 5.022l1.154.403zm8.85-4.49c1.13.033 1.317.568 1.316.936-.001.674-.662 1.091-1.319 1.224l.003-2.16zM31.79 9.19c-.002-.132-.002-.955.002-1.099l.002-.303c1.725-.282 2.697-1.235 2.699-2.228 0-.828-.686-1.264-1.598-1.444-.574-.118-1.436-.162-2.473-.162.001.117.045 1.632.042 1.806l-.002.81c0 .515-.025 2.319-.046 2.62h1.373zm4.668-2.526c.003-.936.542-1.817 1.652-1.819.744.004 1.45.516 1.446 1.615 0 1.226-.782 1.83-1.607 1.83-.778 0-1.492-.53-1.491-1.625m4.745 2.2a41.749 41.749 0 01-1.728-.111l.002-.03c.986-.502 1.51-1.383 1.511-2.344.004-1.5-1.1-2.463-2.779-2.463-1.977.002-3.188 1.349-3.188 2.803-.005.67.266 1.355.87 1.844.762.623 1.84.645 1.935.645.07 0 .275.015.594.076.848.162 1.803.382 2.618.547l.164-.967zm5.689-3.676c-.002-.559-.002-1.077-.002-1.238h-1.346c.002.259.024.736.022 1.24l-.002.263c0 1.353-.003 1.887-.295 2.293a1.098 1.098 0 01-.924.475c-.38 0-.697-.129-.908-.448-.321-.393-.354-.91-.35-2.012v-.478c0-.654.002-1.049.02-1.222h-1.362c0 .157-.017.734-.019 1.057v.386c0 1.761.146 2.293.518 2.828.548.781 1.47.875 1.986.878.852-.003 1.517-.255 1.987-.792.577-.657.669-1.5.671-2.893l.003-.336zm2.322 1.946c.15-.288.657-1.3.822-1.583.134.231.67 1.197.857 1.511l-1.68.072h.002zm-1.059 2.132c.19-.289.59-1.15.662-1.296l2.44-.115c.092.112.674 1.08.833 1.412l1.19-.669c-.408-.553-2.371-3.664-3.183-4.853l-.058.002c-.519.773-2.684 4.414-2.996 4.93l1.112.589zm14.416-2.133c.15-.288.656-1.301.821-1.583.135.23.67 1.197.857 1.511l-1.679.072h.001zm-1.06 2.132c.19-.289.59-1.151.663-1.297l2.44-.115c.092.113.674 1.08.832 1.412l1.191-.668c-.408-.553-2.371-3.664-3.184-4.854l-.057.003c-.52.772-2.684 4.414-2.996 4.929l1.112.59z" fill="#fff"/></svg>