<svg width="131" height="28" viewBox="0 0 131 28" fill="none" xmlns="http://www.w3.org/2000/svg"><path d="M6.804 21.664c0-1.716-1.02-2.964-2.436-2.964-.66 0-1.176.276-1.788.984h-.072V15.76h-.12l-2.112.576v.048l.66.6v7.86a7.878 7.878 0 002.208.348c2.16 0 3.66-1.452 3.66-3.528zm-1.5.708c0 1.452-.72 2.34-1.812 2.34-.408 0-.756-.12-.984-.288v-4.296c.204-.264.504-.432.9-.432 1.104 0 1.896 1.128 1.896 2.676zm4.507 2.808c.744 0 1.44-.36 2.1-1.092h.072l.144 1.092 2.004-.492v-.06l-.612-.564V18.7h-.12l-2.112.576v.06l.66.6v3.72c-.456.384-.876.576-1.296.576-.612 0-.972-.384-.972-1.02v-4.524h-.12l-2.112.576v.06l.66.6v3.636c0 .948.684 1.62 1.704 1.62zm6.603-7.728c.54 0 .9-.324.9-.852s-.36-.84-.9-.84c-.552 0-.912.312-.912.84s.36.852.912.852zM17.758 25v-.048l-.564-.552v-5.7h-.12l-2.112.576v.048l.66.6V24.4l-.552.552V25h2.688zm3.68 0v-.06l-.564-.552V15.76h-.12l-2.112.576v.048l.66.6v7.404l-.552.552V25h2.688zm.908-2.76c0 1.716 1.02 2.952 2.46 2.952.672 0 1.152-.276 1.776-1.008h.072l.132.996 2.04-.48v-.06l-.624-.588V15.76h-.12l-2.112.576v.048l.66.612v1.884c-.204-.096-.612-.18-1.032-.18-1.836 0-3.252 1.524-3.252 3.54zm1.5-.732c0-1.452.708-2.34 1.8-2.34.396 0 .756.108.984.288v4.296a1.093 1.093 0 01-.9.432c-1.104 0-1.884-1.128-1.884-2.676zm10.398 3.672c1.56 0 2.556-.828 2.556-2.112 0-2.076-3.108-1.5-3.108-3.012 0-.576.42-.972 1.02-.972.156 0 .3.024.408.072l1.272 1.08h.06v-1.212c-.408-.192-1.104-.324-1.692-.324-1.452 0-2.412.804-2.412 1.992 0 2.088 3.096 1.512 3.096 3.024 0 .636-.456 1.068-1.104 1.068-.168 0-.348-.036-.504-.12l-1.572-1.272h-.06v1.356c.42.228 1.38.432 2.04.432zm5.471 0c.828 0 1.56-.456 1.908-1.2l-.048-.036c-.276.24-.612.372-.936.372-.504 0-.852-.288-.852-.924V19.48h1.56l.084-.6h-1.644v-1.224h-.204l-2.196 1.764v.06h.828v4.632c.168.744.804 1.068 1.5 1.068zm3.095-.78l-.552.54V25h2.76v-.06l-.636-.54v-3.948c.156-.36.6-.672.9-.672.036 0 .072 0 .108.012l1.128.756h.06v-1.692c-.108-.096-.336-.156-.588-.156-.588 0-1.044.348-1.584 1.236h-.06l-.084-1.236h-.12l-1.992.564v.048l.66.6V24.4zm7.215.78c1.848 0 3.12-1.368 3.12-3.312 0-1.896-1.212-3.168-3-3.168-1.848 0-3.108 1.368-3.108 3.312 0 1.896 1.2 3.168 2.988 3.168zm.204-.456c-.948 0-1.572-1.212-1.572-3.108 0-1.608.468-2.472 1.284-2.472.948 0 1.584 1.212 1.584 3.108 0 1.608-.48 2.472-1.296 2.472zm5.954-4.512c.456-.384.9-.564 1.332-.564.624 0 1.008.384 1.008 1.008v3.72l-.564.564V25h2.688v-.06l-.552-.54v-4.08c0-.96-.708-1.62-1.74-1.62-.768 0-1.476.36-2.136 1.092h-.072l-.084-1.092h-.12l-1.992.552v.06l.66.6V24.4l-.552.54V25h2.688v-.06l-.564-.54v-4.188zm7.825 7.188c1.908 0 3.36-.996 3.36-2.316 0-.624-.312-1.14-.804-1.296h-3.12c-.492 0-.816-.276-.816-.672 0-.24.144-.444.396-.552.3.096.624.144.972.144 1.452 0 2.568-.9 2.568-2.016 0-.6-.324-1.14-.876-1.404l.012-.048 1.404.372h.06v-.936h-.06l-1.656.348a3.053 3.053 0 00-1.392-.324c-1.404 0-2.508.912-2.508 2.064 0 .756.48 1.38 1.224 1.704v.024c-.696.192-1.152.708-1.152 1.344 0 .456.24.804.6.996v.048l-.768.324c-.12.108-.18.3-.18.528 0 .96 1.14 1.668 2.736 1.668zm.144-5.076c-.648 0-1.08-.66-1.08-1.788 0-.948.312-1.452.888-1.452.66 0 1.092.672 1.092 1.788 0 .948-.312 1.452-.9 1.452zm-1.908 3.132c0-.216.06-.408.168-.528.18.06.372.096.588.096h2.508c.504 0 .744.204.744.624 0 .768-.816 1.296-1.896 1.296-1.2 0-2.112-.648-2.112-1.488zm14.51-3.792c0-1.716-1.02-2.964-2.437-2.964-.66 0-1.176.276-1.788.984h-.072V15.76h-.12l-2.112.576v.048l.66.6v7.86a7.878 7.878 0 002.208.348c2.16 0 3.66-1.452 3.66-3.528zm-1.5.708c0 1.452-.72 2.34-1.813 2.34-.408 0-.756-.12-.984-.288v-4.296c.204-.264.504-.432.9-.432 1.104 0 1.896 1.128 1.896 2.676zm4.506 2.808c.744 0 1.44-.36 2.1-1.092h.072l.144 1.092 2.004-.492v-.06l-.612-.564V18.7h-.12l-2.112.576v.06l.66.6v3.72c-.456.384-.876.576-1.296.576-.612 0-.972-.384-.972-1.02v-4.524h-.12l-2.112.576v.06l.66.6v3.636c0 .948.684 1.62 1.704 1.62zm7.324 0c1.56 0 2.556-.828 2.556-2.112 0-2.076-3.108-1.5-3.108-3.012 0-.576.42-.972 1.02-.972.156 0 .3.024.408.072l1.272 1.08h.06v-1.212c-.408-.192-1.104-.324-1.692-.324-1.452 0-2.412.804-2.412 1.992 0 2.088 3.096 1.512 3.096 3.024 0 .636-.456 1.068-1.104 1.068-.168 0-.348-.036-.504-.12l-1.572-1.272h-.06v1.356c.42.228 1.38.432 2.04.432zm4.81-7.728c.54 0 .9-.324.9-.852s-.36-.84-.9-.84c-.551 0-.911.312-.911.84s.36.852.912.852zM93.24 25v-.048l-.564-.552v-5.7h-.12l-2.112.576v.048l.66.6V24.4l-.552.552V25h2.688zm3.116-4.788c.456-.384.9-.564 1.332-.564.624 0 1.008.384 1.008 1.008v3.72l-.564.564V25h2.688v-.06l-.552-.54v-4.08c0-.96-.708-1.62-1.74-1.62-.768 0-1.476.36-2.136 1.092h-.072l-.084-1.092h-.12l-1.992.552v.06l.66.6V24.4l-.552.54V25h2.688v-.06l-.564-.54v-4.188zm8.149 4.968c1.452 0 2.472-.888 2.748-2.364l-.06-.036c-.504.84-1.212 1.272-2.064 1.272-1.32 0-2.196-1.02-2.268-2.604h4.308c-.324-1.812-1.212-2.748-2.604-2.748-1.704 0-2.988 1.428-2.988 3.348 0 1.872 1.2 3.132 2.928 3.132zm-.252-6.036c.732 0 1.164.552 1.416 1.896h-2.808c.06-1.212.564-1.896 1.392-1.896zm5.824 6.036c1.56 0 2.556-.828 2.556-2.112 0-2.076-3.108-1.5-3.108-3.012 0-.576.42-.972 1.02-.972.156 0 .3.024.408.072l1.272 1.08h.06v-1.212c-.408-.192-1.104-.324-1.692-.324-1.452 0-2.412.804-2.412 1.992 0 2.088 3.096 1.512 3.096 3.024 0 .636-.456 1.068-1.104 1.068-.168 0-.348-.036-.504-.12l-1.572-1.272h-.06v1.356c.42.228 1.38.432 2.04.432zm5.531 0c1.56 0 2.556-.828 2.556-2.112 0-2.076-3.108-1.5-3.108-3.012 0-.576.42-.972 1.02-.972.156 0 .3.024.408.072l1.272 1.08h.06v-1.212c-.408-.192-1.104-.324-1.692-.324-1.452 0-2.412.804-2.412 1.992 0 2.088 3.096 1.512 3.096 3.024 0 .636-.456 1.068-1.104 1.068-.168 0-.348-.036-.504-.12l-1.572-1.272h-.06v1.356c.42.228 1.38.432 2.04.432zm6.311 0c1.452 0 2.472-.888 2.748-2.364l-.06-.036c-.504.84-1.212 1.272-2.064 1.272-1.32 0-2.196-1.02-2.268-2.604h4.308c-.324-1.812-1.212-2.748-2.604-2.748-1.704 0-2.988 1.428-2.988 3.348 0 1.872 1.2 3.132 2.928 3.132zm-.252-6.036c.732 0 1.164.552 1.416 1.896h-2.808c.06-1.212.564-1.896 1.392-1.896zm5.824 6.036c1.56 0 2.556-.828 2.556-2.112 0-2.076-3.108-1.5-3.108-3.012 0-.576.42-.972 1.02-.972.156 0 .3.024.408.072l1.272 1.08h.06v-1.212c-.408-.192-1.104-.324-1.692-.324-1.452 0-2.412.804-2.412 1.992 0 2.088 3.096 1.512 3.096 3.024 0 .636-.456 1.068-1.104 1.068-.168 0-.348-.036-.504-.12l-1.572-1.272h-.06v1.356c.42.228 1.38.432 2.04.432zM3.96 11.12c1.956 0 3.216-1.248 3.216-2.748 0-1.896-1.548-2.328-2.892-2.616-1.092-.252-1.968-.384-1.968-1.092 0-.576.408-1.044 1.356-1.044 1.008 0 1.596.42 2.052 1.092l1.38-1.08c-.888-.984-1.86-1.524-3.408-1.524C1.872 2.108.588 3.26.588 4.7c0 1.776 1.464 2.196 2.772 2.472 1.212.276 2.052.444 2.052 1.26 0 .636-.492 1.092-1.44 1.092-1.044 0-1.824-.468-2.4-1.38L.096 9.32c.828 1.056 1.98 1.8 3.864 1.8zm3.652-5.136h1.2v2.724c0 1.764.792 2.412 2.148 2.412.6 0 1.128-.18 1.548-.492l-.756-1.296c-.192.168-.372.24-.6.24-.42 0-.708-.24-.708-.924V5.984h1.704V4.52h-1.704V2.156l-1.632.96V4.52h-1.2v1.464zM13.246 11h1.644V7.58c0-1.092.552-1.524 1.404-1.524.372 0 .684.096.864.228l.6-1.632a2.405 2.405 0 00-1.092-.252c-.828 0-1.476.348-1.788 1.116V4.52h-1.632V11zm8.044.132c1.956 0 3.432-1.512 3.432-3.372 0-1.872-1.5-3.372-3.432-3.372-1.944 0-3.42 1.5-3.42 3.372 0 1.86 1.476 3.372 3.42 3.372zm.012-1.572c-.996 0-1.776-.804-1.776-1.812s.78-1.812 1.776-1.812c.984 0 1.776.804 1.776 1.812s-.792 1.812-1.776 1.812zM25.808 11h1.668V7.424c0-1.008.6-1.584 1.38-1.584.876 0 1.32.576 1.32 1.5V11h1.692V7.088c0-1.692-.972-2.7-2.508-2.7-.804 0-1.476.36-1.896.948V4.52h-1.656V11zm10.252.096c.84 0 1.584-.384 2.04-1.02v.492c0 1.02-.744 1.728-1.788 1.728-.852 0-1.332-.312-1.764-.876l-1.368 1.068c.732.852 1.704 1.284 3.18 1.284 1.992 0 3.396-1.368 3.396-3.252v-6H38.1v.852c-.432-.6-1.152-.984-2.016-.984-1.656 0-3.144 1.308-3.144 3.36 0 2.052 1.524 3.348 3.12 3.348zm.324-1.536c-.996 0-1.8-.804-1.8-1.824 0-1.032.804-1.824 1.8-1.824 1.02 0 1.8.804 1.8 1.824s-.78 1.824-1.8 1.824zM43.867 11h1.644V7.58c0-1.092.552-1.524 1.404-1.524.372 0 .684.096.864.228l.6-1.632a2.405 2.405 0 00-1.092-.252c-.828 0-1.476.348-1.788 1.116V4.52h-1.632V11zm8.056.132c1.428 0 2.34-.588 2.988-1.5l-1.356-.792c-.324.528-.84.864-1.608.864-.96 0-1.644-.528-1.86-1.368h5.148v-.624c0-1.92-1.404-3.324-3.348-3.324-1.932 0-3.396 1.5-3.396 3.384s1.344 3.36 3.432 3.36zm-.036-5.34c.864 0 1.488.444 1.704 1.248h-3.456c.264-.756.912-1.248 1.752-1.248zM56.324 11h1.656V1.544h-1.656V11zm4.97.132c1.02 0 1.907-.456 2.375-1.128V11h1.596V7.016c0-1.632-1.092-2.628-3-2.628-1.452 0-2.4.612-3.06 1.476l1.524.756c.3-.54.792-.852 1.524-.852.936 0 1.404.48 1.404 1.176v.084h-1.704c-1.8 0-2.916.828-2.916 2.172 0 1.14.84 1.932 2.256 1.932zm.48-1.368c-.685 0-1.009-.24-1.009-.708 0-.504.396-.816 1.38-.816h1.524v.348c-.324.696-1.104 1.176-1.896 1.176zm4.186-3.78h1.2v2.724c0 1.764.792 2.412 2.148 2.412.6 0 1.128-.18 1.548-.492L70.1 9.332c-.192.168-.372.24-.6.24-.42 0-.708-.24-.708-.924V5.984h1.704V4.52h-1.704V2.156l-1.632.96V4.52h-1.2v1.464zM71.593 11h1.692V4.52h-1.692V11zm-.216-8.304c0 .612.432 1.056 1.056 1.056.636 0 1.068-.444 1.068-1.056 0-.624-.432-1.08-1.068-1.08-.612 0-1.056.456-1.056 1.08zm6.42 8.436c1.957 0 3.433-1.512 3.433-3.372 0-1.872-1.5-3.372-3.432-3.372-1.944 0-3.42 1.5-3.42 3.372 0 1.86 1.476 3.372 3.42 3.372zm.013-1.572c-.996 0-1.776-.804-1.776-1.812s.78-1.812 1.776-1.812c.984 0 1.776.804 1.776 1.812S78.794 9.56 77.81 9.56zM82.316 11h1.668V7.424c0-1.008.6-1.584 1.38-1.584.876 0 1.32.576 1.32 1.5V11h1.692V7.088c0-1.692-.972-2.7-2.508-2.7-.804 0-1.476.36-1.896.948V4.52h-1.656V11zm9.916.132c1.884.012 2.784-1.128 2.784-2.136 0-1.392-1.272-1.764-2.352-1.98-.948-.204-1.476-.312-1.476-.72 0-.36.312-.624.96-.624.6 0 1.008.252 1.272.684l1.512-.612c-.6-.864-1.416-1.38-2.784-1.38-1.596-.012-2.652.936-2.652 2.028 0 1.368 1.212 1.704 2.304 1.932.828.168 1.524.276 1.524.744 0 .384-.36.708-1.032.708-.684 0-1.2-.3-1.488-.876l-1.596.624c.516 1.032 1.488 1.608 3.024 1.608zM96.039 11h1.644V7.424c0-1.008.6-1.584 1.38-1.584.876 0 1.32.576 1.32 1.5V11h1.704V7.088c0-1.692-.984-2.7-2.52-2.7-.792 0-1.452.348-1.884.924V1.544h-1.644V11zm7.324 0h1.692V4.52h-1.692V11zm-.216-8.304c0 .612.432 1.056 1.056 1.056.636 0 1.068-.444 1.068-1.056 0-.624-.432-1.08-1.068-1.08-.612 0-1.056.456-1.056 1.08zm6.888 8.436c1.596 0 3.108-1.308 3.108-3.372s-1.488-3.372-3.12-3.372c-.876 0-1.608.396-2.04 1.032v-.9h-1.632v9.072h1.644v-3.384c.432.6 1.164.924 2.04.924zm-.336-1.56c-1.02 0-1.8-.816-1.8-1.824s.78-1.824 1.8-1.824c.996 0 1.788.804 1.788 1.824s-.792 1.824-1.788 1.824zm7.037 1.56c1.884.012 2.784-1.128 2.784-2.136 0-1.392-1.272-1.764-2.352-1.98-.948-.204-1.476-.312-1.476-.72 0-.36.312-.624.96-.624.6 0 1.008.252 1.272.684l1.512-.612c-.6-.864-1.416-1.38-2.784-1.38C115.056 4.352 114 5.3 114 6.392c0 1.368 1.212 1.704 2.304 1.932.828.168 1.524.276 1.524.744 0 .384-.36.708-1.032.708-.684 0-1.2-.3-1.488-.876l-1.596.624c.516 1.032 1.488 1.608 3.024 1.608z" fill="#fff"/></svg>