<svg width="230" height="25" viewBox="0 0 230 25" fill="none" xmlns="http://www.w3.org/2000/svg"><path d="M7.59 19.23c3.749 0 6.164-2.392 6.164-5.267 0-3.634-2.967-4.462-5.543-5.014-2.093-.483-3.772-.736-3.772-2.093 0-1.104.782-2.001 2.599-2.001 1.932 0 3.059.805 3.933 2.093l2.645-2.07c-1.702-1.886-3.565-2.921-6.532-2.921-3.496 0-5.957 2.208-5.957 4.968 0 3.404 2.806 4.209 5.313 4.738 2.323.529 3.933.851 3.933 2.415 0 1.219-.943 2.093-2.76 2.093-2.001 0-3.496-.897-4.6-2.645L.184 15.78c1.587 2.024 3.795 3.45 7.406 3.45zm7-9.844h2.3v5.221c0 3.381 1.518 4.623 4.117 4.623 1.15 0 2.162-.345 2.967-.943l-1.449-2.484c-.368.322-.713.46-1.15.46-.805 0-1.357-.46-1.357-1.771V9.386h3.266V6.58h-3.266V2.049l-3.128 1.84V6.58h-2.3v2.806zM25.387 19h3.151v-6.555c0-2.093 1.058-2.921 2.692-2.921.712 0 1.31.184 1.655.437l1.15-3.128c-.528-.276-1.264-.483-2.092-.483-1.588 0-2.83.667-3.428 2.139V6.58h-3.128V19zm15.418.253c3.75 0 6.578-2.898 6.578-6.463 0-3.588-2.875-6.463-6.578-6.463-3.726 0-6.555 2.875-6.555 6.463 0 3.565 2.83 6.463 6.555 6.463zm.023-3.013c-1.909 0-3.404-1.541-3.404-3.473s1.495-3.473 3.404-3.473c1.886 0 3.404 1.541 3.404 3.473s-1.518 3.473-3.404 3.473zM49.466 19h3.197v-6.854c0-1.932 1.15-3.036 2.645-3.036 1.679 0 2.53 1.104 2.53 2.875V19h3.243v-7.498c0-3.243-1.863-5.175-4.807-5.175-1.541 0-2.83.69-3.634 1.817V6.58h-3.174V19zm19.65.184c1.61 0 3.035-.736 3.91-1.955v.943c0 1.955-1.427 3.312-3.428 3.312-1.633 0-2.553-.598-3.38-1.679l-2.623 2.047c1.403 1.633 3.266 2.461 6.095 2.461 3.818 0 6.51-2.622 6.51-6.233V6.58h-3.175v1.633c-.828-1.15-2.208-1.886-3.864-1.886-3.174 0-6.026 2.507-6.026 6.44 0 3.933 2.921 6.417 5.98 6.417zm.62-2.944c-1.909 0-3.45-1.541-3.45-3.496 0-1.978 1.541-3.496 3.45-3.496 1.955 0 3.45 1.541 3.45 3.496s-1.495 3.496-3.45 3.496zM84.078 19h3.15v-6.555c0-2.093 1.059-2.921 2.692-2.921.713 0 1.31.184 1.656.437l1.15-3.128c-.53-.276-1.265-.483-2.093-.483-1.587 0-2.83.667-3.427 2.139V6.58h-3.128V19zm15.44.253c2.738 0 4.486-1.127 5.728-2.875l-2.599-1.518c-.621 1.012-1.61 1.656-3.082 1.656-1.84 0-3.151-1.012-3.565-2.622h9.867v-1.196c0-3.68-2.691-6.371-6.417-6.371-3.703 0-6.51 2.875-6.51 6.486 0 3.611 2.577 6.44 6.579 6.44zM99.45 9.018c1.656 0 2.852.851 3.266 2.392h-6.624c.506-1.449 1.748-2.392 3.358-2.392zM107.954 19h3.174V.876h-3.174V19zm9.525.253c1.955 0 3.657-.874 4.554-2.162V19h3.059v-7.636c0-3.128-2.093-5.037-5.75-5.037-2.783 0-4.6 1.173-5.865 2.829l2.921 1.449c.575-1.035 1.518-1.633 2.921-1.633 1.794 0 2.691.92 2.691 2.254v.161h-3.266c-3.45 0-5.589 1.587-5.589 4.163 0 2.185 1.61 3.703 4.324 3.703zm.92-2.622c-1.311 0-1.932-.46-1.932-1.357 0-.966.759-1.564 2.645-1.564h2.921v.667c-.621 1.334-2.116 2.254-3.634 2.254zm8.024-7.245h2.3v5.221c0 3.381 1.518 4.623 4.117 4.623 1.15 0 2.162-.345 2.967-.943l-1.449-2.484c-.368.322-.713.46-1.15.46-.805 0-1.357-.46-1.357-1.771V9.386h3.266V6.58h-3.266V2.049l-3.128 1.84V6.58h-2.3v2.806zM137.221 19h3.243V6.58h-3.243V19zm-.414-15.916c0 1.173.828 2.024 2.024 2.024 1.219 0 2.047-.851 2.047-2.024 0-1.196-.828-2.07-2.047-2.07-1.173 0-2.024.874-2.024 2.07zm12.305 16.169c3.749 0 6.578-2.898 6.578-6.463 0-3.588-2.875-6.463-6.578-6.463-3.726 0-6.555 2.875-6.555 6.463 0 3.565 2.829 6.463 6.555 6.463zm.023-3.013c-1.909 0-3.404-1.541-3.404-3.473s1.495-3.473 3.404-3.473c1.886 0 3.404 1.541 3.404 3.473s-1.518 3.473-3.404 3.473zm8.637 2.76h3.197v-6.854c0-1.932 1.15-3.036 2.645-3.036 1.679 0 2.53 1.104 2.53 2.875V19h3.243v-7.498c0-3.243-1.863-5.175-4.807-5.175-1.541 0-2.829.69-3.634 1.817V6.58h-3.174V19zm19.006.253c3.611.023 5.336-2.162 5.336-4.094 0-2.668-2.438-3.381-4.508-3.795-1.817-.391-2.829-.598-2.829-1.38 0-.69.598-1.196 1.84-1.196 1.15 0 1.932.483 2.438 1.311l2.898-1.173c-1.15-1.656-2.714-2.645-5.336-2.645-3.059-.023-5.083 1.794-5.083 3.887 0 2.622 2.323 3.266 4.416 3.703 1.587.322 2.921.529 2.921 1.426 0 .736-.69 1.357-1.978 1.357-1.311 0-2.3-.575-2.852-1.679l-3.059 1.196c.989 1.978 2.852 3.082 5.796 3.082zm7.296-.253h3.151v-6.854c0-1.932 1.15-3.036 2.645-3.036 1.679 0 2.53 1.104 2.53 2.875V19h3.266v-7.498c0-3.243-1.886-5.175-4.83-5.175-1.518 0-2.783.667-3.611 1.771V.876h-3.151V19zm14.038 0h3.243V6.58h-3.243V19zm-.414-15.916c0 1.173.828 2.024 2.024 2.024 1.219 0 2.047-.851 2.047-2.024 0-1.196-.828-2.07-2.047-2.07-1.173 0-2.024.874-2.024 2.07zm13.203 16.169c3.059 0 5.957-2.507 5.957-6.463s-2.852-6.463-5.98-6.463c-1.679 0-3.082.759-3.91 1.978V6.58h-3.128v17.388h3.151v-6.486c.828 1.15 2.231 1.771 3.91 1.771zm-.644-2.99c-1.955 0-3.45-1.564-3.45-3.496s1.495-3.496 3.45-3.496c1.909 0 3.427 1.541 3.427 3.496s-1.518 3.496-3.427 3.496zm13.487 2.99c3.611.023 5.336-2.162 5.336-4.094 0-2.668-2.438-3.381-4.508-3.795-1.817-.391-2.829-.598-2.829-1.38 0-.69.598-1.196 1.84-1.196 1.15 0 1.932.483 2.438 1.311l2.898-1.173c-1.15-1.656-2.714-2.645-5.336-2.645-3.059-.023-5.083 1.794-5.083 3.887 0 2.622 2.323 3.266 4.416 3.703 1.587.322 2.921.529 2.921 1.426 0 .736-.69 1.357-1.978 1.357-1.311 0-2.3-.575-2.852-1.679l-3.059 1.196c.989 1.978 2.852 3.082 5.796 3.082z" fill="#fff"/></svg>