<svg width="149" height="34" viewBox="0 0 149 34" fill="none" xmlns="http://www.w3.org/2000/svg"><path d="M61.986 25.821h-2.02v-1.28h5.404v1.28h-2v5.906h-1.384v-5.906z" fill="#fff"/><path d="M64.514 29.07c0-1.535 1.224-2.767 2.836-2.767 1.612 0 2.847 1.23 2.847 2.767s-1.225 2.767-2.847 2.767c-1.622 0-2.836-1.24-2.836-2.767zm4.318-.01c0-.827-.656-1.486-1.473-1.486-.817 0-1.473.66-1.473 1.486 0 .827.646 1.486 1.473 1.486.827 0 1.473-.66 1.473-1.486zM70.833 29.06c0-1.684 1.235-2.756 2.608-2.756.716 0 1.313.315 1.671.806v-.698h1.373v4.92c0 1.546-1.165 2.668-2.816 2.668-1.224 0-2.03-.354-2.637-1.053l1.135-.876c.358.463.755.72 1.463.72.866 0 1.482-.581 1.482-1.418v-.403c-.378.521-.994.836-1.692.836-1.323 0-2.587-1.063-2.587-2.746zm4.35-.01c0-.837-.647-1.496-1.493-1.496-.846 0-1.493.65-1.493 1.496a1.48 1.48 0 001.493 1.496c.825 0 1.492-.66 1.492-1.496zM77.192 29.079c0-1.546 1.214-2.776 2.816-2.776 1.601 0 2.776 1.153 2.776 2.727v.511h-4.269c.18.689.747 1.122 1.542 1.122.636 0 1.064-.275 1.334-.709l1.124.65c-.537.748-1.294 1.23-2.478 1.23-1.732 0-2.847-1.211-2.847-2.756h.002zm1.362-.6h2.866c-.18-.66-.696-1.025-1.414-1.025-.717 0-1.234.404-1.453 1.024h.001zM83.112 26.412h.994v-1.153l1.354-.787v1.938h1.414v1.201H85.46v2.185c0 .562.24.758.587.758.19 0 .338-.06.498-.197l.628 1.062a2.138 2.138 0 01-1.285.404c-1.124 0-1.78-.532-1.78-1.98V27.61h-.995v-1.201l-.001.003zM87.73 23.97h1.363v3.091c.358-.472.906-.758 1.562-.758 1.274 0 2.09.827 2.09 2.215v3.21H91.33v-3.004c0-.757-.368-1.23-1.095-1.23-.646 0-1.144.473-1.144 1.3v2.933h-1.363V23.97h.001zM93.432 29.079c0-1.546 1.214-2.776 2.816-2.776 1.602 0 2.777 1.153 2.777 2.727v.511h-4.27c.18.689.747 1.122 1.543 1.122.636 0 1.064-.275 1.333-.709l1.124.65c-.537.748-1.294 1.23-2.478 1.23-1.731 0-2.846-1.211-2.846-2.756h.001zm1.363-.6h2.865c-.179-.66-.696-1.025-1.413-1.025-.718 0-1.235.404-1.453 1.024zM99.72 26.412h1.355v.816c.259-.63.796-.916 1.482-.916.358 0 .677.09.906.208l-.498 1.339c-.15-.108-.408-.187-.717-.187-.706 0-1.164.354-1.164 1.25v2.805h-1.363v-5.316zM106.145 31.728v-.052l.511-.443v-4.337h-.777v-.052l.787-.568c.128-1.537 1.001-2.652 2.096-2.652.213 0 .479.042.617.105v1.126h-.053l-1.352-.59c-.372.063-.68.685-.68 1.359 0 .548.245.789.787.789h1.075l-.075.483h-1.267v4.337l.693.443v.052h-2.363.001zM109.242 29.14c0-1.674 1.096-2.886 2.66-2.886 1.563 0 2.533 1.116 2.533 2.748 0 1.632-1.097 2.885-2.66 2.885-1.564 0-2.533-1.116-2.533-2.748zm3.98.189c0-1.632-.608-2.705-1.512-2.705-.788 0-1.256.789-1.256 2.19 0 1.632.607 2.705 1.511 2.705.788 0 1.257-.79 1.257-2.19zM115.552 27.276l-.607-.495v-.053l1.575-.474h.095l.075 1.063h.054c.489-.757.894-1.063 1.426-1.063.234 0 .447.063.554.137v1.316h-.053l-.948-.632c-.032-.01-.063-.01-.095-.01-.299 0-.756.326-.915.695v3.473l.554.443v.053h-2.224v-.053l.511-.442v-3.958h-.002zM123.449 31.897a6.05 6.05 0 01-1.83-.316v-6.926l-.596-.495v-.043l1.66-.495h.107v3.484h.063c.543-.61.98-.853 1.565-.853 1.245 0 2.149 1.084 2.149 2.58 0 1.789-1.298 3.063-3.118 3.063zm.277-4.864c-.415 0-.734.179-.936.464v3.736c.223.159.564.263.947.263 1.033 0 1.724-.8 1.724-2.116 0-1.315-.713-2.347-1.735-2.347zM127.141 29.182c0-1.674 1.118-2.926 2.575-2.926 1.171 0 1.947.82 2.234 2.368h-3.862c.021 1.452.819 2.4 2.022 2.4.766 0 1.393-.4 1.852-1.19l.053.031c-.245 1.253-1.118 2.022-2.351 2.022-1.49 0-2.523-1.085-2.523-2.705zm.958-.895h2.713c-.245-1.168-.649-1.663-1.341-1.663-.777 0-1.288.62-1.373 1.663h.001zM133.005 30.98v-4.084h-.756v-.052l1.745-1.421h.18v.99h1.532l-.075.483h-1.458v3.494c0 .568.287.832.756.832.309 0 .627-.127.894-.38l.043.032a1.774 1.774 0 01-1.606 1.01c-.608 0-1.118-.295-1.257-.904h.002zM136.762 30.98v-4.084h-.756v-.052l1.745-1.421h.181v.99h1.531l-.074.483h-1.459v3.494c0 .568.287.832.756.832.309 0 .628-.127.894-.38l.044.032a1.776 1.776 0 01-1.607 1.01c-.607 0-1.118-.295-1.256-.904h.001zM139.933 29.182c0-1.674 1.118-2.926 2.575-2.926 1.171 0 1.947.82 2.234 2.368h-3.862c.021 1.452.819 2.4 2.022 2.4.766 0 1.393-.4 1.852-1.19l.053.031c-.245 1.253-1.118 2.022-2.351 2.022-1.49 0-2.523-1.085-2.523-2.705zm.958-.895h2.713c-.245-1.168-.649-1.663-1.341-1.663-.777 0-1.288.62-1.373 1.663h.001zM145.828 27.276l-.607-.495v-.053l1.575-.474h.095l.075 1.063h.054c.489-.757.894-1.063 1.426-1.063.234 0 .447.063.554.137v1.316h-.053l-.948-.632c-.032-.01-.063-.01-.095-.01-.299 0-.756.326-.915.695v3.473l.554.443v.053h-2.224v-.053l.511-.442v-3.958h-.002zM108.024 8.743c.786-.006 2.131.172 2.129 1.18-.005 1.014-1.081 1.725-2.132 1.76l.003-2.941v.001zm-.008 4.1c1.362-.072 2.489.458 2.499 1.39-.007 1.003-1.362 1.661-2.508 1.754l.009-3.143zm-1.589 4.577c4.393-.008 6.722-1.671 6.73-3.285.004-1.292-1.378-1.962-2.426-2.138v-.092c1.61-.674 1.915-1.6 1.918-2.14-.005-.778-.357-1.923-3.539-2.246-.981-.071-1.93-.143-3.618-.138.093.318.096 2.738.091 3.179l-.003 1.588c-.002.27-.005 4.522-.098 5.264l.945.009v-.001zm22.925.115c-.046-.495.045-5.713.045-6.174.188.235 6.59 5.564 7.79 6.343l.092-.032c.037-1.247.185-3.421.272-5.45.147-2.07.247-3.997.342-4.817l-2.415-.097c0 .603-.061 5.551-.061 6.142-.501-.404-6.363-5.321-7.766-6.354l-.102.045c-.096.857-.253 3.166-.39 5.401a106.133 106.133 0 01-.277 4.925l2.468.07.002-.002zm13.133.053c-.048-.28-.094-3.48-.094-4.548l.005-.503.102.004c.931 1.216 4.353 4.856 4.536 5.096l1.965-1.674c-.543-.576-3.36-3.203-3.902-3.745.802-.751 3.034-2.736 3.64-3.325l-1.825-1.586c-.318.385-3.605 3.75-4.422 4.694l-.098-.009v-.474c.004-1.272.063-4.01.105-4.241h-2.693c-.006.317.039 3.145.039 4.36l-.002 1.542c-.008 1.598-.054 4.008-.059 4.406l2.702.003h.001zm-124.7.78l3.284 1.395-.397.945-3.033-1.014-3.036 1.555-2.817-1.229-2.901 1.405-3.126-1.476-2.966 1.202-.488-.898 3.267-1.586 3.613 1.265L11.69 18.6l2.567 1.194 3.53-1.425h-.002zm-6.2-15.998l3.878 3.99-3.494-.563 4.662 4.573-4.97-1 4.765 4.65-5.4-1.137.722 4.37-2.247-.002.594-4.3-4.038 2.241 3.209-5.628-3.521 1.76L9.986 5.32l-2.64.69 4.24-3.64V2.37zM1.935 0L.846.073.03 5.83l.202 7.037-.109 6.941L0 24.552l6.43-.069 8.636.18 5.925-.456 2.384-.264-.197-10.203-.763-6.037.414-6.837-14.77-.78L1.936 0zm38.83 9.805c.004-1.057.008-2.04.008-2.34l-2.56-.006c.042.494.116 1.39.11 2.344v.502c-.004 2.554-.049 3.563-.573 4.328-.388.539-.993.902-1.79.9-.667-.004-1.31-.243-1.715-.847-.548-.742-.674-1.715-.666-3.803l.003-.899c.005-1.24.049-1.98.122-2.313l-2.642.003c0 .301.002 1.39 0 1.993l-.002.728c0 3.335.228 4.335.937 5.342 1.05 1.48 2.755 1.655 3.782 1.66 1.58 0 2.837-.484 3.755-1.494 1.076-1.241 1.226-2.838 1.234-5.466l-.004-.631.001-.001zm2.514 7.767c.21-.577 1.749-5.063 2.012-5.69h.019c.254.551 1.889 3.29 2.906 4.818l.062-.004c.921-1.163 3.068-4.485 3.395-4.875.163.318 1.835 4.661 2.328 5.75l2.213-.932c-.505-1.016-3.252-7.374-4.064-9.013l-.066.003c-.585.87-3.035 4.79-3.572 5.54-.428-.66-2.796-4.67-3.512-5.85l-.085.006c-.535 1.177-3.536 8.934-3.812 9.485l2.177.762h-.001zM59.97 9.09c2.132.064 2.484 1.074 2.482 1.77-.002 1.272-1.248 2.06-2.488 2.312l.005-4.082h.001zm-.012 8.27c-.004-.25-.003-1.802.004-2.075l.005-.573c3.252-.531 5.085-2.333 5.09-4.207 0-1.565-1.295-2.389-3.015-2.73-1.082-.22-2.708-.305-4.664-.305.002.222.085 3.083.08 3.412l-.004 1.531c0 .972-.047 4.378-.087 4.948h2.59zm8.805-4.77c.005-1.768 1.022-3.434 3.115-3.436 1.404.006 2.734.975 2.727 3.05 0 2.316-1.474 3.458-3.03 3.458-1.467 0-2.814-1.001-2.812-3.07m8.948 4.155a78.831 78.831 0 01-3.258-.21l.004-.057c1.86-.947 2.849-2.612 2.85-4.426.008-2.833-2.074-4.653-5.242-4.653-3.728.004-6.012 2.547-6.013 5.295a4.391 4.391 0 001.64 3.482c1.439 1.178 3.473 1.218 3.65 1.219.134.001.52.029 1.12.143 1.6.307 3.402.721 4.94 1.033l.308-1.827.001.002zm10.73-6.944c-.002-1.055-.002-2.035-.002-2.338h-2.54c.003.49.045 1.39.041 2.341l-.003.498c0 2.556-.005 3.565-.557 4.33a2.07 2.07 0 01-1.742.899c-.715 0-1.314-.244-1.713-.847-.605-.742-.668-1.718-.661-3.8v-.904c.002-1.234.005-1.98.04-2.307h-2.57c0 .297-.032 1.386-.035 1.995v.73c0 3.327.275 4.331.976 5.341 1.035 1.476 2.773 1.654 3.747 1.66 1.606-.006 2.86-.483 3.747-1.497 1.087-1.24 1.261-2.834 1.266-5.465l.004-.634.003-.002zm4.381 3.677c.282-.544 1.237-2.458 1.549-2.99.254.435 1.264 2.26 1.617 2.854l-3.167.136h.001zm-1.998 4.026c.357-.545 1.113-2.173 1.249-2.448l4.603-.218c.173.213 1.27 2.04 1.569 2.668l2.247-1.263c-.771-1.045-4.474-6.921-6.006-9.168l-.108.005c-.979 1.459-5.063 8.337-5.65 9.31l2.096 1.114zm27.19-4.029c.282-.544 1.237-2.457 1.548-2.99.254.436 1.264 2.261 1.617 2.854l-3.166.136h.001zm-1.998 4.027c.357-.546 1.113-2.174 1.248-2.449l4.604-.217c.172.212 1.27 2.04 1.568 2.667l2.247-1.263c-.771-1.045-4.473-6.921-6.005-9.167l-.108.005c-.979 1.458-5.063 8.337-5.651 9.31l2.097 1.114z" fill="#fff"/></svg>