<svg width="250" height="23" viewBox="0 0 250 23" fill="none" xmlns="http://www.w3.org/2000/svg"><path d="M13.041 11.606c0-3.289-1.955-5.681-4.669-5.681-1.265 0-2.254.529-3.427 1.886h-.138V.29h-.23L.529 1.394v.092l1.265 1.15v15.065c1.357.437 3.036.667 4.232.667 4.14 0 7.015-2.783 7.015-6.762zm-2.875 1.357c0 2.783-1.38 4.485-3.473 4.485-.782 0-1.449-.23-1.886-.552V8.662c.391-.506.966-.828 1.725-.828 2.116 0 3.634 2.162 3.634 5.129zm8.639 5.382c1.425 0 2.76-.69 4.024-2.093h.139l.276 2.093 3.84-.943v-.115l-1.172-1.081V5.925h-.23l-4.048 1.104v.115l1.264 1.15v7.13c-.873.736-1.678 1.104-2.483 1.104-1.174 0-1.863-.736-1.863-1.955V5.902h-.23l-4.048 1.104v.115l1.265 1.15v6.969c0 1.817 1.31 3.105 3.266 3.105zM31.46 3.533c1.035 0 1.725-.621 1.725-1.633S32.496.29 31.46.29c-1.058 0-1.748.598-1.748 1.61s.69 1.633 1.748 1.633zM34.037 18v-.092l-1.081-1.058V5.925h-.23l-4.048 1.104v.092l1.265 1.15v8.579l-1.058 1.058V18h5.152zm7.053 0v-.115l-1.081-1.058V.29h-.23L35.73 1.394v.092l1.265 1.15v14.191l-1.058 1.058V18h5.152zm1.74-5.29c0 3.289 1.954 5.658 4.714 5.658 1.288 0 2.208-.529 3.404-1.932h.138l.253 1.909 3.91-.92v-.115l-1.196-1.127V.29h-.23l-4.048 1.104v.092l1.265 1.173V6.27c-.39-.184-1.173-.345-1.978-.345-3.519 0-6.233 2.921-6.233 6.785zm2.874-1.403c0-2.783 1.357-4.485 3.45-4.485.76 0 1.45.207 1.886.552v8.234c-.39.506-.966.828-1.725.828-2.116 0-3.61-2.162-3.61-5.129zm19.93 7.038c2.99 0 4.899-1.587 4.899-4.048 0-3.979-5.957-2.875-5.957-5.773 0-1.104.805-1.863 1.955-1.863.299 0 .575.046.782.138l2.438 2.07h.115V6.546c-.782-.368-2.116-.621-3.243-.621C63.84 5.925 62 7.466 62 9.743c0 4.002 5.934 2.898 5.934 5.796 0 1.219-.874 2.047-2.116 2.047a2.06 2.06 0 01-.966-.23l-3.013-2.438h-.115v2.599c.805.437 2.645.828 3.91.828zm10.487 0c1.587 0 2.99-.874 3.657-2.3l-.093-.069c-.529.46-1.172.713-1.794.713-.966 0-1.633-.552-1.633-1.771V7.42h2.99l.161-1.15h-3.15V3.924h-.391l-4.21 3.381v.115h1.588v8.878c.322 1.426 1.54 2.047 2.875 2.047zm5.931-1.495l-1.058 1.035V18h5.29v-.115l-1.219-1.035V9.283c.3-.69 1.15-1.288 1.725-1.288.07 0 .138 0 .207.023l2.162 1.449h.115V6.224c-.207-.184-.644-.299-1.127-.299-1.127 0-2 .667-3.036 2.369h-.115l-.16-2.369h-.23l-3.819 1.081v.092l1.265 1.15v8.602zm13.83 1.495c3.542 0 5.98-2.622 5.98-6.348 0-3.634-2.323-6.072-5.75-6.072-3.542 0-5.957 2.622-5.957 6.348 0 3.634 2.3 6.072 5.727 6.072zm.39-.874c-1.816 0-3.012-2.323-3.012-5.957 0-3.082.897-4.738 2.46-4.738 1.818 0 3.037 2.323 3.037 5.957 0 3.082-.92 4.738-2.484 4.738zm11.411-8.648c.874-.736 1.725-1.081 2.553-1.081 1.196 0 1.932.736 1.932 1.932v7.13l-1.081 1.081V18h5.152v-.115l-1.058-1.035V9.03c0-1.84-1.357-3.105-3.335-3.105-1.472 0-2.829.69-4.094 2.093h-.138l-.161-2.093h-.23l-3.818 1.058v.115l1.265 1.15v8.602l-1.058 1.035V18h5.152v-.115l-1.081-1.035V8.823zm15 13.777c3.657 0 6.44-1.909 6.44-4.439 0-1.196-.598-2.185-1.541-2.484h-5.98c-.943 0-1.564-.529-1.564-1.288 0-.46.276-.851.759-1.058a6.08 6.08 0 001.863.276c2.783 0 4.922-1.725 4.922-3.864 0-1.15-.621-2.185-1.679-2.691l.023-.092 2.691.713h.115V5.879h-.115l-3.174.667a5.85 5.85 0 00-2.668-.621c-2.691 0-4.807 1.748-4.807 3.956 0 1.449.92 2.645 2.346 3.266v.046c-1.334.368-2.208 1.357-2.208 2.576 0 .874.46 1.541 1.15 1.909v.092l-1.472.621c-.23.207-.345.575-.345 1.012 0 1.84 2.185 3.197 5.244 3.197zm.276-9.729c-1.242 0-2.07-1.265-2.07-3.427 0-1.817.598-2.783 1.702-2.783 1.265 0 2.093 1.288 2.093 3.427 0 1.817-.598 2.783-1.725 2.783zm-3.657 6.003c0-.414.115-.782.322-1.012.345.115.713.184 1.127.184h4.807c.966 0 1.426.391 1.426 1.196 0 1.472-1.564 2.484-3.634 2.484-2.3 0-4.048-1.242-4.048-2.852zm27.808-7.268c0-3.289-1.955-5.681-4.669-5.681-1.265 0-2.254.529-3.427 1.886h-.138V.29h-.23l-4.048 1.104v.092l1.265 1.15v15.065c1.357.437 3.036.667 4.232.667 4.14 0 7.015-2.783 7.015-6.762zm-2.875 1.357c0 2.783-1.38 4.485-3.473 4.485-.782 0-1.449-.23-1.886-.552V8.662c.391-.506.966-.828 1.725-.828 2.116 0 3.634 2.162 3.634 5.129zm8.639 5.382c1.426 0 2.76-.69 4.025-2.093h.138l.276 2.093 3.841-.943v-.115l-1.173-1.081V5.925h-.23l-4.048 1.104v.115l1.265 1.15v7.13c-.874.736-1.679 1.104-2.484 1.104-1.173 0-1.863-.736-1.863-1.955V5.902h-.23l-4.048 1.104v.115l1.265 1.15v6.969c0 1.817 1.311 3.105 3.266 3.105zm14.036 0c2.99 0 4.899-1.587 4.899-4.048 0-3.979-5.957-2.875-5.957-5.773 0-1.104.805-1.863 1.955-1.863.299 0 .575.046.782.138l2.438 2.07h.115V6.546c-.782-.368-2.116-.621-3.243-.621-2.783 0-4.623 1.541-4.623 3.818 0 4.002 5.934 2.898 5.934 5.796 0 1.219-.874 2.047-2.116 2.047a2.06 2.06 0 01-.966-.23l-3.013-2.438H163v2.599c.805.437 2.645.828 3.91.828zm9.222-14.812c1.035 0 1.725-.621 1.725-1.633s-.69-1.61-1.725-1.61c-1.058 0-1.748.598-1.748 1.61s.69 1.633 1.748 1.633zM178.708 18v-.092l-1.081-1.058V5.925h-.23l-4.048 1.104v.092l1.265 1.15v8.579l-1.058 1.058V18h5.152zm5.972-9.177c.874-.736 1.725-1.081 2.553-1.081 1.196 0 1.932.736 1.932 1.932v7.13l-1.081 1.081V18h5.152v-.115l-1.058-1.035V9.03c0-1.84-1.357-3.105-3.335-3.105-1.472 0-2.829.69-4.094 2.093h-.138l-.161-2.093h-.23l-3.818 1.058v.115l1.265 1.15v8.602l-1.058 1.035V18h5.152v-.115l-1.081-1.035V8.823zm15.62 9.522c2.783 0 4.738-1.702 5.267-4.531l-.115-.069c-.966 1.61-2.323 2.438-3.956 2.438-2.53 0-4.209-1.955-4.347-4.991h8.257c-.621-3.473-2.323-5.267-4.991-5.267-3.266 0-5.727 2.737-5.727 6.417 0 3.588 2.3 6.003 5.612 6.003zm-.483-11.569c1.403 0 2.231 1.058 2.714 3.634h-5.382c.115-2.323 1.081-3.634 2.668-3.634zm11.162 11.569c2.99 0 4.899-1.587 4.899-4.048 0-3.979-5.957-2.875-5.957-5.773 0-1.104.805-1.863 1.955-1.863.299 0 .575.046.782.138l2.438 2.07h.115V6.546c-.782-.368-2.116-.621-3.243-.621-2.783 0-4.623 1.541-4.623 3.818 0 4.002 5.934 2.898 5.934 5.796 0 1.219-.874 2.047-2.116 2.047a2.06 2.06 0 01-.966-.23l-3.013-2.438h-.115v2.599c.805.437 2.645.828 3.91.828zm10.601 0c2.99 0 4.899-1.587 4.899-4.048 0-3.979-5.957-2.875-5.957-5.773 0-1.104.805-1.863 1.955-1.863.299 0 .575.046.782.138l2.438 2.07h.115V6.546c-.782-.368-2.116-.621-3.243-.621-2.783 0-4.623 1.541-4.623 3.818 0 4.002 5.934 2.898 5.934 5.796 0 1.219-.874 2.047-2.116 2.047a2.06 2.06 0 01-.966-.23l-3.013-2.438h-.115v2.599c.805.437 2.645.828 3.91.828zm12.097 0c2.783 0 4.738-1.702 5.267-4.531l-.115-.069c-.966 1.61-2.323 2.438-3.956 2.438-2.53 0-4.209-1.955-4.347-4.991h8.257c-.621-3.473-2.323-5.267-4.991-5.267-3.266 0-5.727 2.737-5.727 6.417 0 3.588 2.3 6.003 5.612 6.003zm-.483-11.569c1.403 0 2.231 1.058 2.714 3.634h-5.382c.115-2.323 1.081-3.634 2.668-3.634zm11.162 11.569c2.99 0 4.899-1.587 4.899-4.048 0-3.979-5.957-2.875-5.957-5.773 0-1.104.805-1.863 1.955-1.863.299 0 .575.046.782.138l2.438 2.07h.115V6.546c-.782-.368-2.116-.621-3.243-.621-2.783 0-4.623 1.541-4.623 3.818 0 4.002 5.934 2.898 5.934 5.796 0 1.219-.874 2.047-2.116 2.047a2.06 2.06 0 01-.966-.23l-3.013-2.438h-.115v2.599c.805.437 2.645.828 3.91.828z" fill="#fff"/></svg>