<svg width="100" height="27" viewBox="0 0 100 27" fill="none" xmlns="http://www.w3.org/2000/svg"><g filter="url(#filter0_d_206_6)"><rect x="4" y="3" width="92" height="18.269" rx="9.135" fill="#ED4536"/><path d="M25.008 16.273h4.311V15.04h-3.033V9.703h-1.278v6.57zm7.403.099c1.07 0 1.755-.441 2.24-1.125l-1.016-.594c-.243.396-.63.648-1.206.648-.72 0-1.233-.396-1.395-1.026h3.86v-.468c0-1.44-1.052-2.493-2.51-2.493a2.509 2.509 0 00-2.547 2.538c0 1.413 1.008 2.52 2.574 2.52zm-.027-4.005c.648 0 1.116.333 1.278.936H31.07a1.351 1.351 0 011.314-.936zm4.76 4.005c.765 0 1.431-.342 1.782-.846v.747h1.197v-2.988c0-1.224-.819-1.971-2.25-1.971-1.089 0-1.8.459-2.295 1.107l1.143.567c.225-.405.594-.64 1.143-.64.702 0 1.053.36 1.053.883v.063H37.64c-1.35 0-2.187.62-2.187 1.629 0 .855.63 1.449 1.692 1.449zm.36-1.026c-.513 0-.756-.18-.756-.531 0-.378.297-.612 1.035-.612h1.143v.26c-.243.523-.828.883-1.422.883zm3.577.927h1.233v-2.565c0-.82.414-1.143 1.053-1.143.28 0 .513.072.648.17l.45-1.223a1.804 1.804 0 00-.819-.19c-.62 0-1.107.262-1.34.838v-.747H41.08v4.86zm4.026 0h1.25V13.59c0-.756.45-1.188 1.036-1.188.657 0 .99.432.99 1.125v2.745h1.269v-2.934c0-1.27-.73-2.025-1.881-2.025-.603 0-1.107.27-1.422.71v-.611h-1.242v4.86zm7.701 0h1.26V11.71l1.917 2.6 1.971-2.645v4.608h1.242v-6.57H58.02l-2.025 2.709-1.953-2.71h-1.233v6.57zm9.784.099c1.467 0 2.574-1.134 2.574-2.53 0-1.403-1.125-2.528-2.574-2.528-1.458 0-2.565 1.125-2.565 2.529 0 1.395 1.107 2.529 2.565 2.529zm.009-1.18c-.747 0-1.332-.602-1.332-1.358 0-.756.585-1.36 1.332-1.36a1.34 1.34 0 011.332 1.36 1.34 1.34 0 01-1.332 1.359zm3.38 1.08h1.233v-2.564c0-.82.414-1.143 1.053-1.143.279 0 .513.072.648.17l.45-1.223a1.804 1.804 0 00-.82-.19c-.62 0-1.106.262-1.34.838v-.747H65.98v4.86zm6.042.1c1.07 0 1.755-.441 2.24-1.125l-1.016-.594c-.243.396-.63.648-1.206.648-.72 0-1.233-.396-1.395-1.026h3.86v-.468c0-1.44-1.052-2.493-2.51-2.493a2.509 2.509 0 00-2.547 2.538c0 1.413 1.008 2.52 2.574 2.52zm-.027-4.005c.648 0 1.116.333 1.278.936h-2.592a1.351 1.351 0 011.314-.936z" fill="#fff"/></g><defs><filter id="filter0_d_206_6" x="0" y="0" width="100" height="27" filterUnits="userSpaceOnUse" color-interpolation-filters="sRGB"><feFlood flood-opacity="0" result="BackgroundImageFix"/><feColorMatrix in="SourceAlpha" values="0 0 0 0 0 0 0 0 0 0 0 0 0 0 0 0 0 0 127 0" result="hardAlpha"/><feOffset dy="1"/><feGaussianBlur stdDeviation="2"/><feComposite in2="hardAlpha" operator="out"/><feColorMatrix values="0 0 0 0 0 0 0 0 0 0 0 0 0 0 0 0 0 0 0.25 0"/><feBlend in2="BackgroundImageFix" result="effect1_dropShadow_206_6"/><feBlend in="SourceGraphic" in2="effect1_dropShadow_206_6" result="shape"/></filter></defs></svg>