<svg width="252" height="58" viewBox="0 0 252 58" fill="none" xmlns="http://www.w3.org/2000/svg"><path d="M104.836 44.048h-3.416v-2.184h9.139v2.184h-3.384v10.075h-2.339V44.048z" fill="#fff"/><path d="M109.111 49.59c0-2.619 2.07-4.72 4.797-4.72 2.726 0 4.814 2.099 4.814 4.72 0 2.621-2.071 4.72-4.814 4.72-2.744 0-4.797-2.116-4.797-4.72zm7.304-.017c0-1.41-1.111-2.536-2.492-2.536-1.382 0-2.492 1.126-2.492 2.536 0 1.41 1.093 2.535 2.492 2.535 1.398 0 2.492-1.125 2.492-2.535zM119.798 49.573c0-2.872 2.088-4.702 4.41-4.702 1.212 0 2.222.537 2.827 1.375v-1.191h2.323v8.395c0 2.636-1.97 4.55-4.763 4.55-2.071 0-3.433-.604-4.46-1.796l1.919-1.494c.605.789 1.278 1.226 2.474 1.226 1.466 0 2.507-.99 2.507-2.417v-.688c-.64.889-1.682 1.427-2.861 1.427-2.238 0-4.376-1.813-4.376-4.685zm7.356-.017c0-1.428-1.094-2.553-2.525-2.553-1.43 0-2.524 1.108-2.524 2.553 0 1.444 1.128 2.552 2.524 2.552a2.526 2.526 0 002.525-2.552zM130.552 49.605c0-2.636 2.054-4.734 4.763-4.734s4.696 1.965 4.696 4.65v.873h-7.221c.303 1.174 1.264 1.914 2.608 1.914 1.077 0 1.801-.47 2.256-1.21l1.901 1.109c-.908 1.275-2.189 2.098-4.191 2.098-2.928 0-4.814-2.066-4.814-4.702l.002.002zm2.305-1.024h4.846c-.302-1.126-1.177-1.747-2.39-1.747-1.214 0-2.089.688-2.458 1.746h.002zM140.565 45.055h1.682V43.09l2.29-1.344v3.307h2.391v2.049h-2.391v3.727c0 .958.404 1.292.993 1.292.32 0 .571-.1.842-.336l1.061 1.813c-.589.437-1.33.688-2.172.688-1.901 0-3.012-.907-3.012-3.376v-3.813h-1.682v-2.049l-.002.007zM148.376 40.89h2.305v5.273c.606-.806 1.532-1.292 2.642-1.292 2.155 0 3.534 1.41 3.534 3.778v5.474h-2.391V49c0-1.293-.623-2.099-1.852-2.099-1.093 0-1.935.806-1.935 2.216v5.005h-2.305V40.89h.002zM158.019 49.605c0-2.636 2.054-4.734 4.763-4.734s4.696 1.965 4.696 4.65v.873h-7.22c.303 1.174 1.263 1.914 2.608 1.914 1.076 0 1.8-.47 2.255-1.21l1.901 1.109c-.908 1.275-2.189 2.098-4.191 2.098-2.928 0-4.814-2.066-4.814-4.702l.002.002zm2.305-1.024h4.847c-.303-1.126-1.178-1.747-2.391-1.747-1.214 0-2.088.688-2.458 1.746h.002zM168.655 45.055h2.29v1.393c.438-1.074 1.347-1.562 2.507-1.562a3.38 3.38 0 011.532.353l-.842 2.285c-.254-.184-.69-.32-1.212-.32-1.194 0-1.97.605-1.97 2.133v4.786h-2.305v-9.068zM179.521 54.125v-.09l.864-.754v-7.399h-1.315v-.09l1.332-.968c.217-2.622 1.693-4.525 3.544-4.525.361 0 .81.073 1.044.18v1.92h-.09l-2.286-1.005c-.629.108-1.151 1.168-1.151 2.317 0 .935.415 1.346 1.332 1.346h1.817l-.126.825h-2.142v7.399l1.171.754v.09h-3.996.002zM184.758 49.708c0-2.855 1.854-4.921 4.499-4.921 2.644 0 4.283 1.903 4.283 4.687 0 2.784-1.854 4.921-4.498 4.921-2.645 0-4.284-1.903-4.284-4.687zm6.731.324c0-2.785-1.027-4.615-2.557-4.615-1.332 0-2.124 1.346-2.124 3.736 0 2.784 1.027 4.614 2.556 4.614 1.332 0 2.125-1.346 2.125-3.736zM195.431 46.53l-1.027-.845v-.09l2.664-.808h.161l.127 1.813h.09c.827-1.292 1.512-1.813 2.412-1.813.395 0 .756.107.937.234v2.244h-.09l-1.603-1.078c-.054-.018-.107-.018-.161-.018-.505 0-1.278.558-1.547 1.186v5.926l.937.754v.09h-3.762v-.09l.864-.754v-6.752h-.002zM208.786 54.412c-.883 0-2.051-.18-3.095-.538V42.06l-1.008-.845v-.073l2.808-.844h.18v5.943h.108c.917-1.041 1.656-1.455 2.646-1.455 2.106 0 3.635 1.85 3.635 4.4 0 3.052-2.195 5.225-5.274 5.225v.002zm.469-8.296c-.703 0-1.242.304-1.584.79v6.375c.378.27.954.448 1.603.448 1.746 0 2.915-1.366 2.915-3.61 0-2.243-1.205-4.003-2.934-4.003zM215.031 49.78c0-2.854 1.891-4.99 4.355-4.99 1.98 0 3.293 1.399 3.778 4.04h-6.532c.036 2.477 1.385 4.093 3.42 4.093 1.295 0 2.356-.682 3.132-2.03l.09.054c-.415 2.136-1.891 3.448-3.976 3.448-2.52 0-4.267-1.85-4.267-4.614zm1.62-1.525h4.589c-.415-1.993-1.098-2.838-2.269-2.838-1.315 0-2.178 1.059-2.322 2.838h.002zM224.947 52.85v-6.968h-1.278v-.09l2.952-2.424h.305v1.69h2.591l-.127.824h-2.466v5.96c0 .97.485 1.42 1.278 1.42.522 0 1.061-.217 1.512-.648l.073.054c-.522 1.078-1.566 1.723-2.717 1.723-1.027 0-1.891-.504-2.125-1.543l.002.002zM231.302 52.85v-6.968h-1.278v-.09l2.951-2.424h.305v1.69h2.591l-.127.824h-2.466v5.96c0 .97.486 1.42 1.278 1.42.522 0 1.062-.217 1.513-.648l.073.054c-.522 1.078-1.566 1.723-2.718 1.723-1.027 0-1.89-.504-2.124-1.543l.002.002zM236.666 49.78c0-2.854 1.89-4.99 4.354-4.99 1.981 0 3.294 1.399 3.779 4.04h-6.533c.037 2.477 1.386 4.093 3.42 4.093 1.296 0 2.357-.682 3.132-2.03l.091.054c-.415 2.136-1.891 3.448-3.977 3.448-2.52 0-4.266-1.85-4.266-4.614zm1.62-1.525h4.588c-.414-1.993-1.097-2.838-2.268-2.838-1.315 0-2.179 1.059-2.322 2.838h.002zM246.636 46.53l-1.027-.845v-.09l2.664-.808h.161l.127 1.813h.09c.827-1.292 1.512-1.813 2.412-1.813.396 0 .757.107.937.234v2.244h-.09l-1.603-1.078c-.053-.018-.107-.018-.161-.018-.505 0-1.278.558-1.547 1.186v5.926l.937.754v.09h-3.762v-.09l.864-.754v-6.752h-.002zM182.698 14.915c1.33-.011 3.605.293 3.601 2.012-.009 1.73-1.829 2.943-3.605 3.003l.004-5.017v.002zm-.013 6.995c2.303-.124 4.209.78 4.226 2.369-.011 1.712-2.303 2.835-4.241 2.994l.015-5.363zm-2.687 7.806c7.428-.013 11.368-2.85 11.381-5.603.007-2.205-2.331-3.347-4.103-3.647v-.157c2.724-1.15 3.24-2.73 3.244-3.65-.009-1.328-.604-3.281-5.985-3.832-1.659-.122-3.263-.244-6.118-.236.157.543.161 4.67.152 5.423l-.004 2.709c-.004.46-.009 7.713-.165 8.98l1.598.015v-.002zm38.771.197c-.077-.844.077-9.745.077-10.532.318.401 11.145 9.49 13.175 10.82l.155-.054c.062-2.129.314-5.836.46-9.298.249-3.532.419-6.817.58-8.217l-4.086-.165c0 1.029-.103 9.469-.103 10.476-.847-.688-10.761-9.076-13.134-10.838l-.172.077c-.164 1.462-.428 5.401-.66 9.214-.127 3.82-.382 7.478-.468 8.401l4.174.118.002-.002zm22.213.09c-.082-.478-.159-5.937-.159-7.758l.008-.858.172.007c1.575 2.074 7.362 8.283 7.671 8.693l3.324-2.855c-.917-.984-5.682-5.465-6.6-6.39 1.358-1.28 5.133-4.667 6.157-5.672l-3.087-2.705c-.537.656-6.096 6.398-7.478 8.007l-.165-.015v-.808c.006-2.171.105-6.841.176-7.235h-4.554c-.011.54.066 5.364.066 7.439l-.004 2.63c-.013 2.726-.09 6.836-.099 7.516l4.57.004h.002zM30.079 31.334l5.554 2.379-.67 1.612-5.13-1.73-5.135 2.653-4.765-2.096-4.906 2.396L9.74 34.03l-5.016 2.051-.825-1.532 5.525-2.705 6.11 2.158 4.236-2.274 4.342 2.036 5.972-2.43h-.005zM19.594 4.042l6.558 6.807-5.91-.96 7.885 7.801-8.406-1.706 8.06 7.932-9.134-1.94 1.222 7.457-3.8-.004 1.005-7.337-6.83 3.824 5.427-9.602-5.955 3.003 7.173-10.24-4.466 1.176 7.171-6.209v-.002zM3.274 0L1.429.124.052 9.944.393 21.95.208 33.79 0 41.883l10.877-.118 14.603.306 10.022-.777 4.032-.45-.333-17.406L37.91 13.14l.7-11.663L13.63.147 3.274 0zm65.671 16.726c.007-1.803.013-3.479.013-3.993l-4.33-.009c.072.843.197 2.373.186 4v.855c-.006 4.357-.081 6.078-.969 7.383-.655.92-1.68 1.539-3.026 1.535-1.128-.007-2.215-.414-2.9-1.445-.929-1.264-1.141-2.925-1.128-6.487l.006-1.533c.009-2.115.082-3.377.206-3.946l-4.468.005c0 .514.002 2.37 0 3.399l-.004 1.243c0 5.688.386 7.394 1.585 9.113 1.777 2.523 4.66 2.823 6.395 2.831 2.675 0 4.8-.825 6.353-2.548 1.82-2.117 2.073-4.842 2.085-9.325l-.006-1.076.002-.002zm4.252 13.25c.356-.985 2.958-8.638 3.402-9.705h.033c.43.938 3.194 5.61 4.915 8.217l.105-.007c1.557-1.984 5.188-7.651 5.742-8.315.275.542 3.102 7.951 3.936 9.807l3.744-1.588c-.855-1.734-5.501-12.58-6.874-15.376l-.112.005c-.988 1.485-5.132 8.172-6.04 9.45-.725-1.126-4.729-7.965-5.94-9.978l-.145.009c-.904 2.008-5.98 15.24-6.446 16.181l3.682 1.3h-.002zm28.229-14.47c3.605.11 4.2 1.833 4.198 3.02-.004 2.169-2.112 3.515-4.208 3.944l.008-6.964h.002zm-.021 14.11c-.007-.427-.004-3.076.006-3.541l.009-.978c5.502-.906 8.601-3.98 8.608-7.178.002-2.668-2.189-4.074-5.098-4.655-1.83-.377-4.58-.52-7.888-.52.004.377.144 5.26.135 5.819l-.006 2.612c0 1.659-.08 7.47-.149 8.44h4.383zm14.891-8.139c.009-3.015 1.73-5.857 5.27-5.861 2.374.01 4.623 1.663 4.612 5.203 0 3.95-2.494 5.899-5.125 5.899-2.482 0-4.759-1.709-4.757-5.239m15.135 7.09c-1.76-.081-3.588-.19-5.511-.36l.007-.096c3.145-1.616 4.818-4.456 4.821-7.55.012-4.834-3.509-7.937-8.866-7.937-6.305.006-10.168 4.344-10.17 9.031-.015 2.159.849 4.366 2.773 5.941 2.434 2.009 5.874 2.077 6.174 2.08.226.001.879.049 1.895.244 2.705.523 5.753 1.23 8.353 1.761l.522-3.116.002.002zm18.148-11.845c-.004-1.8-.004-3.472-.004-3.989h-4.297c.007.834.077 2.37.071 3.993l-.006.849c0 4.361-.009 6.082-.941 7.387-.643.916-1.639 1.533-2.948 1.533-1.209 0-2.221-.416-2.895-1.445-1.025-1.264-1.13-2.93-1.12-6.48v-1.544c.005-2.105.009-3.378.067-3.935h-4.344c0 .506-.056 2.364-.06 3.403v1.246c0 5.675.464 7.387 1.65 9.11 1.751 2.519 4.689 2.821 6.337 2.832 2.718-.011 4.838-.823 6.337-2.553 1.839-2.115 2.134-4.835 2.142-9.323l.007-1.082.004-.002zm7.409 6.27c.477-.927 2.093-4.192 2.619-5.1.429.744 2.137 3.858 2.735 4.87l-5.356.23h.002zm-3.379 6.87c.604-.93 1.882-3.708 2.112-4.177l7.785-.371c.292.362 2.148 3.48 2.653 4.55l3.8-2.154c-1.304-1.783-7.566-11.807-10.157-15.64l-.182.01c-1.657 2.488-8.563 14.222-9.558 15.88l3.547 1.902zm45.985-6.874c.477-.928 2.092-4.192 2.619-5.1.429.743 2.137 3.857 2.734 4.869l-5.355.231h.002zm-3.379 6.87c.603-.93 1.882-3.708 2.111-4.178l7.786-.37c.292.362 2.148 3.48 2.653 4.55l3.8-2.154c-1.304-1.784-7.566-11.807-10.157-15.64l-.182.01c-1.657 2.487-8.563 14.221-9.558 15.88l3.547 1.901z" fill="#fff"/></svg>