<svg width="129" height="33" viewBox="0 0 129 33" fill="none" xmlns="http://www.w3.org/2000/svg"><g filter="url(#filter0_d_206_82)"><rect x="4" y="3" width="121" height="24.038" rx="12.019" fill="#ED4536"/><path d="M28.448 18.727h6.227v-1.78h-4.381v-7.71h-1.846v9.49zm10.692.143c1.547 0 2.535-.637 3.237-1.625l-1.469-.858c-.35.572-.91.936-1.742.936-1.04 0-1.78-.572-2.015-1.482h5.577v-.676c0-2.08-1.52-3.6-3.627-3.6-2.093 0-3.679 1.624-3.679 3.665s1.456 3.64 3.718 3.64zm-.039-5.785c.936 0 1.612.481 1.846 1.352h-3.744c.286-.819.988-1.352 1.898-1.352zm6.877 5.785c1.105 0 2.067-.494 2.574-1.222v1.08h1.729V14.41c0-1.768-1.183-2.847-3.25-2.847-1.573 0-2.6.663-3.315 1.6l1.65.818c.326-.585.859-.923 1.652-.923 1.014 0 1.52.52 1.52 1.274v.091h-1.845c-1.95 0-3.16.897-3.16 2.353 0 1.235.91 2.093 2.445 2.093zm.52-1.482c-.741 0-1.092-.26-1.092-.767 0-.546.429-.884 1.495-.884h1.65v.377c-.35.754-1.195 1.274-2.053 1.274zm5.167 1.34h1.78v-3.706c0-1.183.599-1.65 1.522-1.65.403 0 .74.103.936.246l.65-1.768a2.605 2.605 0 00-1.183-.273c-.897 0-1.6.377-1.937 1.21v-1.08h-1.768v7.02zm5.814 0h1.807v-3.875c0-1.092.65-1.716 1.495-1.716.95 0 1.43.624 1.43 1.625v3.965h1.833V14.49c0-1.833-1.053-2.925-2.717-2.925-.87 0-1.599.39-2.054 1.027v-.884H57.48v7.02zm11.124 0h1.82v-6.592l2.77 3.757 2.846-3.822v6.656h1.794v-9.49H76.13l-2.925 3.913-2.82-3.913h-1.782v9.49zm14.133.142c2.119 0 3.718-1.638 3.718-3.653 0-2.028-1.625-3.653-3.718-3.653-2.106 0-3.705 1.625-3.705 3.653 0 2.015 1.599 3.653 3.705 3.653zm.013-1.703c-1.08 0-1.924-.87-1.924-1.963 0-1.092.845-1.963 1.924-1.963 1.066 0 1.924.871 1.924 1.963s-.858 1.963-1.924 1.963zm4.882 1.56h1.78v-3.705c0-1.183.599-1.65 1.522-1.65.402 0 .74.103.935.246l.65-1.768a2.605 2.605 0 00-1.183-.273c-.896 0-1.598.377-1.936 1.21v-1.08H87.63v7.02zm8.727.143c1.547 0 2.535-.637 3.237-1.625l-1.469-.858c-.351.572-.91.936-1.742.936-1.04 0-1.781-.572-2.015-1.482h5.577v-.676c0-2.08-1.521-3.6-3.627-3.6-2.093 0-3.679 1.624-3.679 3.665s1.456 3.64 3.718 3.64zm-.039-5.785c.936 0 1.612.481 1.846 1.352h-3.744c.286-.819.988-1.352 1.898-1.352z" fill="#fff"/></g><defs><filter id="filter0_d_206_82" x="0" y="0" width="129" height="33" filterUnits="userSpaceOnUse" color-interpolation-filters="sRGB"><feFlood flood-opacity="0" result="BackgroundImageFix"/><feColorMatrix in="SourceAlpha" values="0 0 0 0 0 0 0 0 0 0 0 0 0 0 0 0 0 0 127 0" result="hardAlpha"/><feOffset dy="1"/><feGaussianBlur stdDeviation="2"/><feComposite in2="hardAlpha" operator="out"/><feColorMatrix values="0 0 0 0 0 0 0 0 0 0 0 0 0 0 0 0 0 0 0.25 0"/><feBlend in2="BackgroundImageFix" result="effect1_dropShadow_206_82"/><feBlend in="SourceGraphic" in2="effect1_dropShadow_206_82" result="shape"/></filter></defs></svg>