<svg width="399" height="42" viewBox="0 0 399 42" fill="none" xmlns="http://www.w3.org/2000/svg"><path d="M13.2 32.4c6.52 0 10.72-4.16 10.72-9.16 0-6.32-5.16-7.76-9.64-8.72-3.64-.84-6.56-1.28-6.56-3.64 0-1.92 1.36-3.48 4.52-3.48 3.36 0 5.32 1.4 6.84 3.64l4.6-3.6c-2.96-3.28-6.2-5.08-11.36-5.08C6.24 2.36 1.96 6.2 1.96 11c0 5.92 4.88 7.32 9.24 8.24 4.04.92 6.84 1.48 6.84 4.2 0 2.12-1.64 3.64-4.8 3.64-3.48 0-6.08-1.56-8-4.6L.32 26.4c2.76 3.52 6.6 6 12.88 6zm12.174-17.12h4v9.08c0 5.88 2.64 8.04 7.16 8.04 2 0 3.76-.6 5.16-1.64l-2.52-4.32c-.64.56-1.24.8-2 .8-1.4 0-2.36-.8-2.36-3.08v-8.88h5.68V10.4h-5.68V2.52l-5.44 3.2v4.68h-4v4.88zM44.152 32h5.48V20.6c0-3.64 1.84-5.08 4.68-5.08 1.24 0 2.28.32 2.88.76l2-5.44c-.92-.48-2.2-.84-3.64-.84-2.76 0-4.92 1.16-5.96 3.72V10.4h-5.44V32zm26.814.44c6.52 0 11.44-5.04 11.44-11.24 0-6.24-5-11.24-11.44-11.24-6.48 0-11.4 5-11.4 11.24 0 6.2 4.92 11.24 11.4 11.24zm.04-5.24c-3.32 0-5.92-2.68-5.92-6.04s2.6-6.04 5.92-6.04c3.28 0 5.92 2.68 5.92 6.04s-2.64 6.04-5.92 6.04zM86.027 32h5.56V20.08c0-3.36 2-5.28 4.6-5.28 2.92 0 4.4 1.92 4.4 5V32h5.64V18.96c0-5.64-3.24-9-8.36-9-2.68 0-4.92 1.2-6.32 3.16V10.4h-5.52V32zm34.173.32c2.8 0 5.28-1.28 6.8-3.4v1.64c0 3.4-2.48 5.76-5.96 5.76-2.84 0-4.44-1.04-5.88-2.92l-4.56 3.56c2.44 2.84 5.68 4.28 10.6 4.28 6.64 0 11.32-4.56 11.32-10.84v-20H127v2.84c-1.44-2-3.84-3.28-6.72-3.28-5.52 0-10.48 4.36-10.48 11.2 0 6.84 5.08 11.16 10.4 11.16zm1.08-5.12c-3.32 0-6-2.68-6-6.08 0-3.44 2.68-6.08 6-6.08 3.4 0 6 2.68 6 6.08s-2.6 6.08-6 6.08zm24.943 4.8h5.48V20.6c0-3.64 1.84-5.08 4.68-5.08 1.24 0 2.28.32 2.88.76l2-5.44c-.92-.48-2.2-.84-3.64-.84-2.76 0-4.92 1.16-5.96 3.72V10.4h-5.44V32zm26.853.44c4.76 0 7.8-1.96 9.96-5l-4.52-2.64c-1.08 1.76-2.8 2.88-5.36 2.88-3.2 0-5.48-1.76-6.2-4.56h17.16v-2.08c0-6.4-4.68-11.08-11.16-11.08-6.44 0-11.32 5-11.32 11.28 0 6.28 4.48 11.2 11.44 11.2zm-.12-17.8c2.88 0 4.96 1.48 5.68 4.16h-11.52c.88-2.52 3.04-4.16 5.84-4.16zM187.746 32h5.52V.48h-5.52V32zm16.565.44c3.4 0 6.36-1.52 7.92-3.76V32h5.32V18.72c0-5.44-3.64-8.76-10-8.76-4.84 0-8 2.04-10.2 4.92l5.08 2.52c1-1.8 2.64-2.84 5.08-2.84 3.12 0 4.68 1.6 4.68 3.92v.28h-5.68c-6 0-9.72 2.76-9.72 7.24 0 3.8 2.8 6.44 7.52 6.44zm1.6-4.56c-2.28 0-3.36-.8-3.36-2.36 0-1.68 1.32-2.72 4.6-2.72h5.08v1.16c-1.08 2.32-3.68 3.92-6.32 3.92zm13.955-12.6h4v9.08c0 5.88 2.64 8.04 7.16 8.04 2 0 3.76-.6 5.16-1.64l-2.52-4.32c-.64.56-1.24.8-2 .8-1.4 0-2.36-.8-2.36-3.08v-8.88h5.68V10.4h-5.68V2.52l-5.44 3.2v4.68h-4v4.88zM238.644 32h5.64V10.4h-5.64V32zm-.72-27.68c0 2.04 1.44 3.52 3.52 3.52 2.12 0 3.56-1.48 3.56-3.52 0-2.08-1.44-3.6-3.56-3.6-2.04 0-3.52 1.52-3.52 3.6zm21.401 28.12c6.52 0 11.44-5.04 11.44-11.24 0-6.24-5-11.24-11.44-11.24-6.48 0-11.4 5-11.4 11.24 0 6.2 4.92 11.24 11.4 11.24zm.04-5.24c-3.32 0-5.92-2.68-5.92-6.04s2.6-6.04 5.92-6.04c3.28 0 5.92 2.68 5.92 6.04s-2.64 6.04-5.92 6.04zm15.022 4.8h5.56V20.08c0-3.36 2-5.28 4.6-5.28 2.92 0 4.4 1.92 4.4 5V32h5.64V18.96c0-5.64-3.24-9-8.36-9-2.68 0-4.92 1.2-6.32 3.16V10.4h-5.52V32zm33.053.44c6.28.04 9.28-3.76 9.28-7.12 0-4.64-4.24-5.88-7.84-6.6-3.16-.68-4.92-1.04-4.92-2.4 0-1.2 1.04-2.08 3.2-2.08 2 0 3.36.84 4.24 2.28l5.04-2.04c-2-2.88-4.72-4.6-9.28-4.6-5.32-.04-8.84 3.12-8.84 6.76 0 4.56 4.04 5.68 7.68 6.44 2.76.56 5.08.92 5.08 2.48 0 1.28-1.2 2.36-3.44 2.36-2.28 0-4-1-4.96-2.92l-5.32 2.08c1.72 3.44 4.96 5.36 10.08 5.36zm12.689-.44h5.48V20.08c0-3.36 2-5.28 4.6-5.28 2.92 0 4.4 1.92 4.4 5V32h5.68V18.96c0-5.64-3.28-9-8.4-9-2.64 0-4.84 1.16-6.28 3.08V.48h-5.48V32zm24.414 0h5.64V10.4h-5.64V32zm-.72-27.68c0 2.04 1.44 3.52 3.52 3.52 2.12 0 3.56-1.48 3.56-3.52 0-2.08-1.44-3.6-3.56-3.6-2.04 0-3.52 1.52-3.52 3.6zm22.961 28.12c5.32 0 10.36-4.36 10.36-11.24s-4.96-11.24-10.4-11.24c-2.92 0-5.36 1.32-6.8 3.44v-3h-5.44v30.24h5.48V29.36c1.44 2 3.88 3.08 6.8 3.08zm-1.12-5.2c-3.4 0-6-2.72-6-6.08s2.6-6.08 6-6.08c3.32 0 5.96 2.68 5.96 6.08s-2.64 6.08-5.96 6.08zm23.455 5.2c6.28.04 9.28-3.76 9.28-7.12 0-4.64-4.24-5.88-7.84-6.6-3.16-.68-4.92-1.04-4.92-2.4 0-1.2 1.04-2.08 3.2-2.08 2 0 3.36.84 4.24 2.28l5.04-2.04c-2-2.88-4.72-4.6-9.28-4.6-5.32-.04-8.84 3.12-8.84 6.76 0 4.56 4.04 5.68 7.68 6.44 2.76.56 5.08.92 5.08 2.48 0 1.28-1.2 2.36-3.44 2.36-2.28 0-4-1-4.96-2.92l-5.32 2.08c1.72 3.44 4.96 5.36 10.08 5.36z" fill="#fff"/></svg>