<svg width="434" height="39" viewBox="0 0 434 39" fill="none" xmlns="http://www.w3.org/2000/svg"><path d="M22.68 19.88c0-5.72-3.4-9.88-8.12-9.88-2.2 0-3.92.92-5.96 3.28h-.24V.2h-.4L.92 2.12v.16l2.2 2v26.2c2.36.76 5.28 1.16 7.36 1.16 7.2 0 12.2-4.84 12.2-11.76zm-5 2.36c0 4.84-2.4 7.8-6.04 7.8-1.36 0-2.52-.4-3.28-.96V14.76c.68-.88 1.68-1.44 3-1.44 3.68 0 6.32 3.76 6.32 8.92zm15.023 9.36c2.48 0 4.8-1.2 7-3.64h.24l.48 3.64 6.68-1.64v-.2l-2.04-1.88V10h-.4l-7.04 1.92v.2l2.2 2v12.4c-1.52 1.28-2.92 1.92-4.32 1.92-2.04 0-3.24-1.28-3.24-3.4V9.96h-.4l-7.04 1.92v.2l2.2 2V26.2c0 3.16 2.28 5.4 5.68 5.4zM54.715 5.84c1.8 0 3-1.08 3-2.84 0-1.76-1.2-2.8-3-2.8-1.84 0-3.04 1.04-3.04 2.8 0 1.76 1.2 2.84 3.04 2.84zM59.195 31v-.16L57.315 29V10h-.4l-7.04 1.92v.16l2.2 2V29l-1.84 1.84V31h8.96zm12.265 0v-.2l-1.88-1.84V.2h-.4l-7.04 1.92v.16l2.2 2v24.68L62.5 30.8v.2h8.96zm3.026-9.2c0 5.72 3.4 9.84 8.2 9.84 2.24 0 3.84-.92 5.92-3.36h.24l.44 3.32 6.8-1.6v-.2l-2.08-1.96V.2h-.4l-7.04 1.92v.16l2.2 2.04v6.28c-.68-.32-2.04-.6-3.44-.6-6.12 0-10.84 5.08-10.84 11.8zm5-2.44c0-4.84 2.36-7.8 6-7.8 1.32 0 2.52.36 3.28.96v14.32c-.68.88-1.68 1.44-3 1.44-3.68 0-6.28-3.76-6.28-8.92zm34.66 12.24c5.2 0 8.52-2.76 8.52-7.04 0-6.92-10.36-5-10.36-10.04 0-1.92 1.4-3.24 3.4-3.24.52 0 1 .08 1.36.24l4.24 3.6h.2v-4.04c-1.36-.64-3.68-1.08-5.64-1.08-4.84 0-8.04 2.68-8.04 6.64 0 6.96 10.32 5.04 10.32 10.08 0 2.12-1.52 3.56-3.68 3.56-.56 0-1.16-.12-1.68-.4l-5.24-4.24h-.2v4.52c1.4.76 4.6 1.44 6.8 1.44zm18.237 0c2.76 0 5.2-1.52 6.36-4l-.16-.12c-.92.8-2.04 1.24-3.12 1.24-1.68 0-2.84-.96-2.84-3.08V12.6h5.2l.28-2h-5.48V6.52h-.68l-7.32 5.88v.2h2.76v15.44c.56 2.48 2.68 3.56 5 3.56zM142.7 29l-1.84 1.8v.2h9.2v-.2l-2.12-1.8V15.84c.52-1.2 2-2.24 3-2.24.12 0 .24 0 .36.04l3.76 2.52h.2v-5.64c-.36-.32-1.12-.52-1.96-.52-1.96 0-3.48 1.16-5.28 4.12h-.2l-.28-4.12h-.4l-6.64 1.88v.16l2.2 2V29zm24.051 2.6c6.16 0 10.4-4.56 10.4-11.04 0-6.32-4.04-10.56-10-10.56-6.16 0-10.36 4.56-10.36 11.04 0 6.32 4 10.56 9.96 10.56zm.68-1.52c-3.16 0-5.24-4.04-5.24-10.36 0-5.36 1.56-8.24 4.28-8.24 3.16 0 5.28 4.04 5.28 10.36 0 5.36-1.6 8.24-4.32 8.24zm19.845-15.04c1.52-1.28 3-1.88 4.44-1.88 2.08 0 3.36 1.28 3.36 3.36v12.4l-1.88 1.88v.2h8.96v-.2l-1.84-1.8V15.4c0-3.2-2.36-5.4-5.8-5.4-2.56 0-4.92 1.2-7.12 3.64h-.24l-.28-3.64h-.4l-6.64 1.84v.2l2.2 2V29l-1.84 1.8v.2h8.96v-.2l-1.88-1.8V15.04zM213.361 39c6.36 0 11.2-3.32 11.2-7.72 0-2.08-1.04-3.8-2.68-4.32h-10.4c-1.64 0-2.72-.92-2.72-2.24 0-.8.48-1.48 1.32-1.84 1 .32 2.08.48 3.24.48 4.84 0 8.56-3 8.56-6.72 0-2-1.08-3.8-2.92-4.68l.04-.16 4.68 1.24h.2V9.92h-.2l-5.52 1.16c-1.36-.68-2.88-1.08-4.64-1.08-4.68 0-8.36 3.04-8.36 6.88 0 2.52 1.6 4.6 4.08 5.68v.08c-2.32.64-3.84 2.36-3.84 4.48 0 1.52.8 2.68 2 3.32v.16l-2.56 1.08c-.4.36-.6 1-.6 1.76 0 3.2 3.8 5.56 9.12 5.56zm.48-16.92c-2.16 0-3.6-2.2-3.6-5.96 0-3.16 1.04-4.84 2.96-4.84 2.2 0 3.64 2.24 3.64 5.96 0 3.16-1.04 4.84-3 4.84zm-6.36 10.44c0-.72.2-1.36.56-1.76.6.2 1.24.32 1.96.32h8.36c1.68 0 2.48.68 2.48 2.08 0 2.56-2.72 4.32-6.32 4.32-4 0-7.04-2.16-7.04-4.96zm48.363-12.64c0-5.72-3.4-9.88-8.12-9.88-2.2 0-3.92.92-5.96 3.28h-.24V.2h-.4l-7.04 1.92v.16l2.2 2v26.2c2.36.76 5.28 1.16 7.36 1.16 7.2 0 12.2-4.84 12.2-11.76zm-5 2.36c0 4.84-2.4 7.8-6.04 7.8-1.36 0-2.52-.4-3.28-.96V14.76c.68-.88 1.68-1.44 3-1.44 3.68 0 6.32 3.76 6.32 8.92zm15.024 9.36c2.48 0 4.8-1.2 7-3.64h.24l.48 3.64 6.68-1.64v-.2l-2.04-1.88V10h-.4l-7.04 1.92v.2l2.2 2v12.4c-1.52 1.28-2.92 1.92-4.32 1.92-2.04 0-3.24-1.28-3.24-3.4V9.96h-.4l-7.04 1.92v.2l2.2 2V26.2c0 3.16 2.279 5.4 5.68 5.4zm24.411 0c5.2 0 8.52-2.76 8.52-7.04 0-6.92-10.36-5-10.36-10.04 0-1.92 1.4-3.24 3.4-3.24.52 0 1 .08 1.36.24l4.24 3.6h.2v-4.04c-1.36-.64-3.68-1.08-5.64-1.08-4.84 0-8.04 2.68-8.04 6.64 0 6.96 10.32 5.04 10.32 10.08 0 2.12-1.52 3.56-3.68 3.56-.56 0-1.16-.12-1.68-.4l-5.24-4.24h-.2v4.52c1.4.76 4.6 1.44 6.8 1.44zm16.037-25.76c1.8 0 3-1.08 3-2.84 0-1.76-1.2-2.8-3-2.8-1.84 0-3.04 1.04-3.04 2.8 0 1.76 1.2 2.84 3.04 2.84zm4.48 25.16v-.16l-1.88-1.84V10h-.4l-7.04 1.92v.16l2.2 2V29l-1.84 1.84V31h8.96zm10.386-15.96c1.52-1.28 3-1.88 4.44-1.88 2.08 0 3.36 1.28 3.36 3.36v12.4l-1.88 1.88v.2h8.96v-.2l-1.84-1.8V15.4c0-3.2-2.36-5.4-5.8-5.4-2.56 0-4.92 1.2-7.12 3.64h-.24l-.28-3.64h-.4l-6.64 1.84v.2l2.2 2V29l-1.84 1.8v.2h8.96v-.2l-1.88-1.8V15.04zm27.166 16.56c4.84 0 8.24-2.96 9.16-7.88l-.2-.12c-1.68 2.8-4.04 4.24-6.88 4.24-4.4 0-7.32-3.4-7.56-8.68h14.36c-1.08-6.04-4.04-9.16-8.68-9.16-5.68 0-9.96 4.76-9.96 11.16 0 6.24 4 10.44 9.76 10.44zm-.84-20.12c2.44 0 3.88 1.84 4.72 6.32h-9.36c.199-4.04 1.88-6.32 4.64-6.32zm19.411 20.12c5.2 0 8.52-2.76 8.52-7.04 0-6.92-10.36-5-10.36-10.04 0-1.92 1.4-3.24 3.4-3.24.52 0 1 .08 1.36.24l4.24 3.6h.2v-4.04c-1.36-.64-3.68-1.08-5.64-1.08-4.84 0-8.04 2.68-8.04 6.64 0 6.96 10.32 5.04 10.32 10.08 0 2.12-1.52 3.56-3.68 3.56-.56 0-1.16-.12-1.68-.4l-5.24-4.24h-.2v4.52c1.4.76 4.6 1.44 6.8 1.44zm18.438 0c5.2 0 8.52-2.76 8.52-7.04 0-6.92-10.36-5-10.36-10.04 0-1.92 1.4-3.24 3.4-3.24.52 0 1 .08 1.36.24l4.24 3.6h.2v-4.04c-1.36-.64-3.68-1.08-5.64-1.08-4.84 0-8.04 2.68-8.04 6.64 0 6.96 10.32 5.04 10.32 10.08 0 2.12-1.52 3.56-3.68 3.56-.56 0-1.16-.12-1.68-.4l-5.24-4.24h-.2v4.52c1.4.76 4.6 1.44 6.8 1.44zm21.037 0c4.84 0 8.24-2.96 9.16-7.88l-.2-.12c-1.68 2.8-4.04 4.24-6.88 4.24-4.4 0-7.32-3.4-7.56-8.68h14.36c-1.08-6.04-4.04-9.16-8.68-9.16-5.68 0-9.96 4.76-9.96 11.16 0 6.24 4 10.44 9.76 10.44zm-.84-20.12c2.44 0 3.88 1.84 4.72 6.32h-9.36c.2-4.04 1.88-6.32 4.64-6.32zm19.412 20.12c5.2 0 8.52-2.76 8.52-7.04 0-6.92-10.36-5-10.36-10.04 0-1.92 1.4-3.24 3.4-3.24.52 0 1 .08 1.36.24l4.24 3.6h.2v-4.04c-1.36-.64-3.68-1.08-5.64-1.08-4.84 0-8.04 2.68-8.04 6.64 0 6.96 10.32 5.04 10.32 10.08 0 2.12-1.52 3.56-3.68 3.56-.56 0-1.16-.12-1.68-.4l-5.24-4.24h-.2v4.52c1.4.76 4.6 1.44 6.8 1.44z" fill="#fff"/></svg>