<svg width="191" height="68" viewBox="0 0 191 68" fill="none" xmlns="http://www.w3.org/2000/svg"><path d="M19.278 17.548c0-4.862-2.89-8.398-6.902-8.398-1.87 0-3.332.782-5.066 2.788h-.204V.82h-.34L.782 2.452v.136l1.87 1.7v22.27c2.006.646 4.488.986 6.256.986 6.12 0 10.37-4.114 10.37-9.996zm-4.25 2.006c0 4.114-2.04 6.63-5.134 6.63-1.156 0-2.142-.34-2.788-.816V13.196c.578-.748 1.428-1.224 2.55-1.224 3.128 0 5.372 3.196 5.372 7.582zm12.77 7.956c2.108 0 4.08-1.02 5.95-3.094h.204l.408 3.094 5.678-1.394v-.17l-1.734-1.598V9.15h-.34l-5.984 1.632v.17l1.87 1.7v10.54c-1.292 1.088-2.482 1.632-3.672 1.632-1.734 0-2.754-1.088-2.754-2.89V9.116h-.34L21.1 10.748v.17l1.87 1.7V22.92c0 2.686 1.938 4.59 4.828 4.59zm18.71-21.896c1.53 0 2.55-.918 2.55-2.414S48.037.82 46.508.82c-1.565 0-2.585.884-2.585 2.38s1.02 2.414 2.584 2.414zM50.315 27v-.136L48.718 25.3V9.15h-.34l-5.984 1.632v.136l1.87 1.7V25.3l-1.565 1.564V27h7.617zm10.426 0v-.17l-1.598-1.564V.82h-.34L52.82 2.452v.136l1.87 1.7v20.978l-1.564 1.564V27h7.616zm2.572-7.82c0 4.862 2.89 8.364 6.97 8.364 1.904 0 3.264-.782 5.032-2.856h.204l.374 2.822 5.78-1.36v-.17l-1.768-1.666V.82h-.34l-5.984 1.632v.136l1.87 1.734V9.66c-.578-.272-1.734-.51-2.924-.51-5.202 0-9.214 4.318-9.214 10.03zm4.25-2.074c0-4.114 2.006-6.63 5.1-6.63 1.122 0 2.142.306 2.788.816v12.172c-.578.748-1.428 1.224-2.55 1.224-3.128 0-5.338-3.196-5.338-7.582zM97.024 27.51c4.42 0 7.242-2.346 7.242-5.984 0-5.882-8.806-4.25-8.806-8.534 0-1.632 1.19-2.754 2.89-2.754.442 0 .85.068 1.156.204l3.604 3.06h.17v-3.434c-1.156-.544-3.128-.918-4.794-.918-4.114 0-6.834 2.278-6.834 5.644 0 5.916 8.772 4.284 8.772 8.568 0 1.802-1.292 3.026-3.128 3.026-.476 0-.986-.102-1.428-.34l-4.454-3.604h-.17v3.842c1.19.646 3.91 1.224 5.78 1.224zm15.502 0c2.346 0 4.42-1.292 5.406-3.4l-.136-.102c-.782.68-1.734 1.054-2.652 1.054-1.428 0-2.414-.816-2.414-2.618V11.36h4.42l.238-1.7h-4.658V6.192h-.578l-6.222 4.998v.17h2.346v13.124c.476 2.108 2.278 3.026 4.25 3.026zm8.769-2.21l-1.564 1.53V27h7.82v-.17l-1.802-1.53V14.114c.442-1.02 1.7-1.904 2.55-1.904.102 0 .204 0 .306.034l3.196 2.142h.17V9.592c-.306-.272-.952-.442-1.666-.442-1.666 0-2.958.986-4.488 3.502h-.17l-.238-3.502h-.34l-5.644 1.598v.136l1.87 1.7V25.3zm20.443 2.21c5.236 0 8.84-3.876 8.84-9.384 0-5.372-3.434-8.976-8.5-8.976-5.236 0-8.806 3.876-8.806 9.384 0 5.372 3.4 8.976 8.466 8.976zm.578-1.292c-2.686 0-4.454-3.434-4.454-8.806 0-4.556 1.326-7.004 3.638-7.004 2.686 0 4.488 3.434 4.488 8.806 0 4.556-1.36 7.004-3.672 7.004zm16.868-12.784c1.292-1.088 2.55-1.598 3.774-1.598 1.768 0 2.856 1.088 2.856 2.856v10.54l-1.598 1.598V27h7.616v-.17l-1.564-1.53V13.74c0-2.72-2.006-4.59-4.93-4.59-2.176 0-4.182 1.02-6.052 3.094h-.204l-.238-3.094h-.34l-5.644 1.564v.17l1.87 1.7V25.3l-1.564 1.53V27h7.616v-.17l-1.598-1.53V13.434zM181.357 33.8c5.406 0 9.52-2.822 9.52-6.562 0-1.768-.884-3.23-2.278-3.672h-8.84c-1.394 0-2.312-.782-2.312-1.904 0-.68.408-1.258 1.122-1.564.85.272 1.768.408 2.754.408 4.114 0 7.276-2.55 7.276-5.712 0-1.7-.918-3.23-2.482-3.978l.034-.136 3.978 1.054h.17V9.082h-.17l-4.692.986a8.649 8.649 0 00-3.944-.918c-3.978 0-7.106 2.584-7.106 5.848 0 2.142 1.36 3.91 3.468 4.828v.068c-1.972.544-3.264 2.006-3.264 3.808 0 1.292.68 2.278 1.7 2.822v.136l-2.176.918c-.34.306-.51.85-.51 1.496 0 2.72 3.23 4.726 7.752 4.726zm.408-14.382c-1.836 0-3.06-1.87-3.06-5.066 0-2.686.884-4.114 2.516-4.114 1.87 0 3.094 1.904 3.094 5.066 0 2.686-.884 4.114-2.55 4.114zm-5.406 8.874c0-.612.17-1.156.476-1.496.51.17 1.054.272 1.666.272h7.106c1.428 0 2.108.578 2.108 1.768 0 2.176-2.312 3.672-5.372 3.672-3.4 0-5.984-1.836-5.984-4.216zM19.278 57.548c0-4.862-2.89-8.398-6.902-8.398-1.87 0-3.332.782-5.066 2.788h-.204V40.82h-.34L.782 42.452v.136l1.87 1.7v22.27c2.006.646 4.488.986 6.256.986 6.12 0 10.37-4.114 10.37-9.996zm-4.25 2.006c0 4.114-2.04 6.63-5.134 6.63-1.156 0-2.142-.34-2.788-.816V53.196c.578-.748 1.428-1.224 2.55-1.224 3.128 0 5.372 3.196 5.372 7.582zm12.77 7.956c2.108 0 4.08-1.02 5.95-3.094h.204l.408 3.094 5.678-1.394v-.17l-1.734-1.598V49.15h-.34l-5.984 1.632v.17l1.87 1.7v10.54c-1.292 1.088-2.482 1.632-3.672 1.632-1.734 0-2.754-1.088-2.754-2.89V49.116h-.34L21.1 50.748v.17l1.87 1.7V62.92c0 2.686 1.938 4.59 4.828 4.59zm20.75 0c4.42 0 7.241-2.346 7.241-5.984 0-5.882-8.806-4.25-8.806-8.534 0-1.632 1.19-2.754 2.89-2.754.443 0 .85.068 1.157.204l3.603 3.06h.17v-3.434c-1.155-.544-3.127-.918-4.793-.918-4.114 0-6.834 2.278-6.834 5.644 0 5.916 8.771 4.284 8.771 8.568 0 1.802-1.291 3.026-3.128 3.026-.476 0-.986-.102-1.428-.34l-4.453-3.604h-.17v3.842c1.19.646 3.91 1.224 5.78 1.224zm13.631-21.896c1.53 0 2.55-.918 2.55-2.414s-1.02-2.38-2.55-2.38c-1.564 0-2.584.884-2.584 2.38s1.02 2.414 2.584 2.414zM65.987 67v-.136L64.39 65.3V49.15h-.34l-5.984 1.632v.136l1.87 1.7V65.3l-1.564 1.564V67h7.616zm8.828-13.566c1.292-1.088 2.55-1.598 3.774-1.598 1.768 0 2.856 1.088 2.856 2.856v10.54l-1.598 1.598V67h7.616v-.17L85.9 65.3V53.74c0-2.72-2.006-4.59-4.93-4.59-2.176 0-4.182 1.02-6.052 3.094h-.204l-.238-3.094h-.34l-5.644 1.564v.17l1.87 1.7V65.3l-1.564 1.53V67h7.616v-.17l-1.598-1.53V53.434zm23.09 14.076c4.115 0 7.005-2.516 7.787-6.698l-.17-.102c-1.428 2.38-3.434 3.604-5.848 3.604-3.74 0-6.222-2.89-6.426-7.378h12.206c-.918-5.134-3.434-7.786-7.378-7.786-4.828 0-8.466 4.046-8.466 9.486 0 5.304 3.4 8.874 8.296 8.874zm-.713-17.102c2.074 0 3.298 1.564 4.012 5.372h-7.956c.17-3.434 1.598-5.372 3.944-5.372zm16.5 17.102c4.42 0 7.242-2.346 7.242-5.984 0-5.882-8.806-4.25-8.806-8.534 0-1.632 1.19-2.754 2.89-2.754.442 0 .85.068 1.156.204l3.604 3.06h.17v-3.434c-1.156-.544-3.128-.918-4.794-.918-4.114 0-6.834 2.278-6.834 5.644 0 5.916 8.772 4.284 8.772 8.568 0 1.802-1.292 3.026-3.128 3.026-.476 0-.986-.102-1.428-.34l-4.454-3.604h-.17v3.842c1.19.646 3.91 1.224 5.78 1.224zm15.672 0c4.42 0 7.242-2.346 7.242-5.984 0-5.882-8.806-4.25-8.806-8.534 0-1.632 1.19-2.754 2.89-2.754.442 0 .85.068 1.156.204l3.604 3.06h.17v-3.434c-1.156-.544-3.128-.918-4.794-.918-4.114 0-6.834 2.278-6.834 5.644 0 5.916 8.772 4.284 8.772 8.568 0 1.802-1.292 3.026-3.128 3.026-.476 0-.986-.102-1.428-.34l-4.454-3.604h-.17v3.842c1.19.646 3.91 1.224 5.78 1.224zm17.882 0c4.114 0 7.004-2.516 7.786-6.698l-.17-.102c-1.428 2.38-3.434 3.604-5.848 3.604-3.74 0-6.222-2.89-6.426-7.378h12.206c-.918-5.134-3.434-7.786-7.378-7.786-4.828 0-8.466 4.046-8.466 9.486 0 5.304 3.4 8.874 8.296 8.874zm-.714-17.102c2.074 0 3.298 1.564 4.012 5.372h-7.956c.17-3.434 1.598-5.372 3.944-5.372zm16.5 17.102c4.42 0 7.242-2.346 7.242-5.984 0-5.882-8.806-4.25-8.806-8.534 0-1.632 1.19-2.754 2.89-2.754.442 0 .85.068 1.156.204l3.604 3.06h.17v-3.434c-1.156-.544-3.128-.918-4.794-.918-4.114 0-6.834 2.278-6.834 5.644 0 5.916 8.772 4.284 8.772 8.568 0 1.802-1.292 3.026-3.128 3.026-.476 0-.986-.102-1.428-.34l-4.454-3.604h-.17v3.842c1.19.646 3.91 1.224 5.78 1.224z" fill="#fff"/></svg>