<svg width="217" height="74" viewBox="0 0 217 74" fill="none" xmlns="http://www.w3.org/2000/svg"><path d="M11.22 26.34c5.542 0 9.112-3.536 9.112-7.786 0-5.372-4.386-6.596-8.194-7.412-3.094-.714-5.576-1.088-5.576-3.094 0-1.632 1.156-2.958 3.842-2.958 2.856 0 4.522 1.19 5.814 3.094l3.91-3.06C17.612 2.336 14.858.806 10.472.806 5.304.806 1.666 4.07 1.666 8.15c0 5.032 4.148 6.222 7.854 7.004 3.434.782 5.814 1.258 5.814 3.57 0 1.802-1.394 3.094-4.08 3.094-2.958 0-5.168-1.326-6.8-3.91L.272 21.24c2.346 2.992 5.61 5.1 10.948 5.1zm10.348-14.552h3.4v7.718c0 4.998 2.244 6.834 6.086 6.834 1.7 0 3.196-.51 4.386-1.394l-2.142-3.672c-.544.476-1.054.68-1.7.68-1.19 0-2.006-.68-2.006-2.618v-7.548h4.828V7.64h-4.828V.942l-4.624 2.72V7.64h-3.4v4.148zM37.529 26h4.658v-9.69c0-3.094 1.564-4.318 3.978-4.318 1.054 0 1.938.272 2.448.646l1.7-4.624c-.782-.408-1.87-.714-3.094-.714-2.346 0-4.182.986-5.066 3.162V7.64H37.53V26zm22.792.374c5.542 0 9.724-4.284 9.724-9.554 0-5.304-4.25-9.554-9.724-9.554-5.508 0-9.69 4.25-9.69 9.554 0 5.27 4.182 9.554 9.69 9.554zm.034-4.454c-2.822 0-5.032-2.278-5.032-5.134 0-2.856 2.21-5.134 5.032-5.134 2.788 0 5.032 2.278 5.032 5.134 0 2.856-2.244 5.134-5.032 5.134zM73.123 26h4.726V15.868c0-2.856 1.7-4.488 3.91-4.488 2.482 0 3.74 1.632 3.74 4.25V26h4.794V14.916c0-4.794-2.754-7.65-7.106-7.65-2.278 0-4.182 1.02-5.372 2.686V7.64h-4.692V26zm29.047.272c2.38 0 4.488-1.088 5.78-2.89v1.394c0 2.89-2.108 4.896-5.066 4.896-2.414 0-3.774-.884-4.998-2.482l-3.876 3.026c2.074 2.414 4.828 3.638 9.01 3.638 5.644 0 9.622-3.876 9.622-9.214v-17h-4.692v2.414c-1.224-1.7-3.264-2.788-5.712-2.788-4.692 0-8.908 3.706-8.908 9.52s4.318 9.486 8.84 9.486zm.918-4.352c-2.822 0-5.1-2.278-5.1-5.168 0-2.924 2.278-5.168 5.1-5.168 2.89 0 5.1 2.278 5.1 5.168s-2.21 5.168-5.1 5.168zM1.836 66h4.658v-9.69c0-3.094 1.564-4.318 3.978-4.318 1.054 0 1.938.272 2.448.646l1.7-4.624c-.782-.408-1.87-.714-3.094-.714-2.346 0-4.182.986-5.066 3.162V47.64H1.836V66zm22.826.374c4.046 0 6.63-1.666 8.466-4.25l-3.842-2.244c-.918 1.496-2.38 2.448-4.556 2.448-2.72 0-4.658-1.496-5.27-3.876h14.586v-1.768c0-5.44-3.978-9.418-9.486-9.418-5.474 0-9.622 4.25-9.622 9.588 0 5.338 3.808 9.52 9.724 9.52zm-.102-15.13c2.448 0 4.216 1.258 4.828 3.536h-9.792c.748-2.142 2.584-3.536 4.964-3.536zM37.13 66h4.693V39.208H37.13V66zm14.08.374c2.89 0 5.407-1.292 6.733-3.196V66h4.522V54.712c0-4.624-3.094-7.446-8.5-7.446-4.114 0-6.8 1.734-8.67 4.182l4.318 2.142c.85-1.53 2.244-2.414 4.318-2.414 2.652 0 3.978 1.36 3.978 3.332v.238H53.08c-5.1 0-8.262 2.346-8.262 6.154 0 3.23 2.38 5.474 6.392 5.474zm1.36-3.876c-1.937 0-2.855-.68-2.855-2.006 0-1.428 1.122-2.312 3.91-2.312h4.318v.986c-.918 1.972-3.128 3.332-5.372 3.332zm11.863-10.71h3.4v7.718c0 4.998 2.244 6.834 6.086 6.834 1.7 0 3.196-.51 4.386-1.394l-2.142-3.672c-.544.476-1.054.68-1.7.68-1.19 0-2.006-.68-2.006-2.618v-7.548h4.828V47.64h-4.828v-6.698l-4.624 2.72v3.978h-3.4v4.148zM80.395 66h4.794V47.64h-4.794V66zm-.612-23.528c0 1.734 1.224 2.992 2.992 2.992 1.802 0 3.026-1.258 3.026-2.992 0-1.768-1.224-3.06-3.026-3.06-1.734 0-2.992 1.292-2.992 3.06zm18.19 23.902c5.542 0 9.724-4.284 9.724-9.554 0-5.304-4.25-9.554-9.724-9.554-5.508 0-9.69 4.25-9.69 9.554 0 5.27 4.182 9.554 9.69 9.554zm.034-4.454c-2.822 0-5.032-2.278-5.032-5.134 0-2.856 2.21-5.134 5.032-5.134 2.788 0 5.032 2.278 5.032 5.134 0 2.856-2.244 5.134-5.032 5.134zM110.775 66h4.726V55.868c0-2.856 1.7-4.488 3.91-4.488 2.482 0 3.74 1.632 3.74 4.25V66h4.794V54.916c0-4.794-2.754-7.65-7.106-7.65-2.278 0-4.182 1.02-5.372 2.686V47.64h-4.692V66zm28.096.374c5.338.034 7.888-3.196 7.888-6.052 0-3.944-3.604-4.998-6.664-5.61-2.686-.578-4.182-.884-4.182-2.04 0-1.02.884-1.768 2.72-1.768 1.7 0 2.856.714 3.604 1.938l4.284-1.734c-1.7-2.448-4.012-3.91-7.888-3.91-4.522-.034-7.514 2.652-7.514 5.746 0 3.876 3.434 4.828 6.528 5.474 2.346.476 4.318.782 4.318 2.108 0 1.088-1.02 2.006-2.924 2.006-1.938 0-3.4-.85-4.216-2.482l-4.522 1.768c1.462 2.924 4.216 4.556 8.568 4.556zM149.656 66h4.658V55.868c0-2.856 1.7-4.488 3.91-4.488 2.482 0 3.74 1.632 3.74 4.25V66h4.828V54.916c0-4.794-2.788-7.65-7.14-7.65-2.244 0-4.114.986-5.338 2.618V39.208h-4.658V66zm20.752 0h4.794V47.64h-4.794V66zm-.612-23.528c0 1.734 1.224 2.992 2.992 2.992 1.802 0 3.026-1.258 3.026-2.992 0-1.768-1.224-3.06-3.026-3.06-1.734 0-2.992 1.292-2.992 3.06zm19.517 23.902c4.522 0 8.806-3.706 8.806-9.554 0-5.848-4.216-9.554-8.84-9.554-2.482 0-4.556 1.122-5.78 2.924v-2.55h-4.624v25.704h4.658v-9.588c1.224 1.7 3.298 2.618 5.78 2.618zm-.952-4.42c-2.89 0-5.1-2.312-5.1-5.168 0-2.856 2.21-5.168 5.1-5.168 2.822 0 5.066 2.278 5.066 5.168s-2.244 5.168-5.066 5.168zm19.937 4.42c5.338.034 7.888-3.196 7.888-6.052 0-3.944-3.604-4.998-6.664-5.61-2.686-.578-4.182-.884-4.182-2.04 0-1.02.884-1.768 2.72-1.768 1.7 0 2.856.714 3.604 1.938l4.284-1.734c-1.7-2.448-4.012-3.91-7.888-3.91-4.522-.034-7.514 2.652-7.514 5.746 0 3.876 3.434 4.828 6.528 5.474 2.346.476 4.318.782 4.318 2.108 0 1.088-1.02 2.006-2.924 2.006-1.938 0-3.4-.85-4.216-2.482l-4.522 1.768c1.462 2.924 4.216 4.556 8.568 4.556z" fill="#fff"/></svg>