<svg width="239" height="55" viewBox="0 0 239 55" fill="none" xmlns="http://www.w3.org/2000/svg"><path d="M99.427 41.77h-3.239v-2.072h8.667v2.071h-3.209v9.554h-2.219V41.77z" fill="#fff"/><path d="M103.482 47.025c0-2.483 1.964-4.475 4.549-4.475 2.586 0 4.566 1.99 4.566 4.475 0 2.486-1.964 4.475-4.566 4.475-2.601 0-4.549-2.006-4.549-4.475zm6.927-.016c0-1.337-1.053-2.404-2.363-2.404s-2.364 1.067-2.364 2.404 1.037 2.404 2.364 2.404c1.326 0 2.363-1.067 2.363-2.404zM113.618 47.009c0-2.724 1.98-4.46 4.183-4.46 1.149 0 2.106.51 2.681 1.306v-1.13h2.202v7.96c0 2.5-1.868 4.315-4.516 4.315-1.965 0-3.256-.573-4.23-1.703l1.819-1.417c.575.748 1.213 1.163 2.347 1.163 1.39 0 2.378-.94 2.378-2.293v-.652c-.607.843-1.595 1.354-2.714 1.354-2.123 0-4.15-1.72-4.15-4.443zm6.976-.017c0-1.353-1.037-2.42-2.394-2.42-1.357 0-2.394 1.05-2.394 2.42 0 1.37 1.07 2.421 2.394 2.421a2.396 2.396 0 002.394-2.42zM123.817 47.04c0-2.5 1.948-4.49 4.517-4.49 2.569 0 4.454 1.863 4.454 4.41v.827h-6.848c.288 1.114 1.198 1.815 2.474 1.815 1.02 0 1.707-.445 2.139-1.146l1.803 1.05c-.862 1.21-2.076 1.99-3.975 1.99-2.777 0-4.566-1.959-4.566-4.459l.002.002zm2.186-.972h4.597c-.287-1.067-1.117-1.657-2.268-1.657-1.151 0-1.98.653-2.331 1.657h.002zM133.314 42.724h1.595v-1.863l2.172-1.274v3.135h2.267v1.943h-2.267V48.2c0 .908.383 1.225.941 1.225.304 0 .542-.095.799-.319l1.006 1.72c-.558.414-1.261.652-2.06.652-1.803 0-2.856-.86-2.856-3.201v-3.616h-1.595v-1.943l-.002.006zM140.722 38.776h2.186v5c.574-.765 1.452-1.226 2.506-1.226 2.043 0 3.351 1.337 3.351 3.583v5.19h-2.267v-4.857c0-1.226-.591-1.99-1.757-1.99-1.037 0-1.835.764-1.835 2.102v4.745h-2.186V38.776h.002zM149.868 47.04c0-2.5 1.947-4.49 4.516-4.49 2.57 0 4.454 1.863 4.454 4.41v.827h-6.848c.288 1.114 1.198 1.815 2.474 1.815 1.021 0 1.707-.445 2.139-1.146l1.803 1.05c-.862 1.21-2.076 1.99-3.975 1.99-2.777 0-4.566-1.959-4.566-4.459l.003.002zm2.186-.972h4.596c-.287-1.067-1.116-1.657-2.268-1.657-1.151 0-1.98.653-2.33 1.657h.002zM159.955 42.724h2.172v1.322c.415-1.019 1.277-1.482 2.377-1.482.575 0 1.086.144 1.453.335l-.799 2.167c-.24-.175-.654-.303-1.149-.303-1.133 0-1.868.573-1.868 2.022v4.538h-2.186v-8.599zM170.26 51.326v-.086l.819-.715v-7.016h-1.247v-.085l1.263-.919c.206-2.486 1.606-4.29 3.362-4.29.342 0 .768.069.99.17v1.822h-.085l-2.168-.954c-.597.102-1.092 1.108-1.092 2.197 0 .886.393 1.277 1.263 1.277h1.724l-.121.782h-2.031v7.016l1.11.715v.086h-3.789.002zM175.227 47.137c0-2.707 1.758-4.666 4.267-4.666 2.508 0 4.062 1.804 4.062 4.444 0 2.64-1.758 4.667-4.266 4.667s-4.063-1.805-4.063-4.445zm6.383.307c0-2.64-.974-4.376-2.424-4.376-1.263 0-2.015 1.276-2.015 3.542 0 2.64.974 4.376 2.424 4.376 1.264 0 2.015-1.276 2.015-3.542zM185.349 44.123l-.974-.801v-.085l2.526-.767h.153l.12 1.72h.086c.784-1.226 1.434-1.72 2.288-1.72.375 0 .717.102.888.222v2.128h-.085l-1.52-1.022c-.051-.017-.102-.017-.153-.017-.479 0-1.212.529-1.467 1.124v5.62l.888.715v.085h-3.567v-.085l.819-.715v-6.402h-.002zM198.016 51.598c-.838 0-1.946-.17-2.936-.51V39.883l-.956-.8v-.07l2.663-.8h.171v5.635h.102c.87-.987 1.571-1.38 2.51-1.38 1.997 0 3.447 1.754 3.447 4.173 0 2.894-2.082 4.955-5.001 4.955v.002zm.444-7.867c-.667 0-1.178.288-1.502.75v6.044c.359.256.905.425 1.52.425 1.656 0 2.765-1.295 2.765-3.423s-1.143-3.797-2.783-3.797zM203.938 47.206c0-2.707 1.793-4.734 4.13-4.734 1.879 0 3.123 1.328 3.584 3.831h-6.196c.035 2.35 1.314 3.882 3.244 3.882 1.228 0 2.235-.646 2.97-1.924l.086.05c-.393 2.027-1.793 3.27-3.771 3.27-2.39 0-4.047-1.753-4.047-4.375zm1.536-1.447h4.352c-.393-1.89-1.041-2.691-2.151-2.691-1.247 0-2.066 1.004-2.203 2.69h.002zM213.343 50.116V43.51h-1.212v-.085l2.799-2.299h.289v1.602h2.457l-.12.782h-2.339v5.652c0 .919.461 1.345 1.213 1.345.495 0 1.006-.205 1.434-.613l.069.05a2.845 2.845 0 01-2.577 1.635c-.974 0-1.793-.478-2.015-1.464l.002.002zM219.37 50.116V43.51h-1.213v-.085l2.8-2.299h.289v1.602h2.457l-.12.782h-2.339v5.652c0 .919.46 1.345 1.212 1.345.495 0 1.007-.205 1.435-.613l.069.05a2.845 2.845 0 01-2.577 1.635c-.974 0-1.793-.478-2.015-1.464l.002.002zM224.457 47.206c0-2.707 1.793-4.734 4.13-4.734 1.878 0 3.123 1.328 3.584 3.831h-6.196c.034 2.35 1.314 3.882 3.243 3.882 1.229 0 2.235-.646 2.971-1.924l.086.05c-.394 2.027-1.793 3.27-3.772 3.27-2.39 0-4.046-1.753-4.046-4.375zm1.536-1.447h4.352c-.393-1.89-1.041-2.691-2.151-2.691-1.247 0-2.066 1.004-2.203 2.69h.002zM233.913 44.123l-.974-.801v-.085l2.526-.767h.153l.12 1.72h.086c.784-1.226 1.434-1.72 2.288-1.72.375 0 .717.102.888.222v2.128h-.086l-1.519-1.022c-.051-.017-.102-.017-.153-.017-.479 0-1.213.529-1.467 1.124v5.62l.888.715v.085h-3.567v-.085l.819-.715v-6.402h-.002zM173.273 14.143c1.261-.01 3.419.279 3.415 1.909-.008 1.64-1.734 2.79-3.419 2.847l.004-4.758v.002zm-.012 6.634c2.184-.118 3.991.74 4.008 2.246-.011 1.624-2.185 2.689-4.022 2.839l.014-5.085zm-2.549 7.402c7.046-.012 10.782-2.703 10.794-5.313.006-2.091-2.21-3.174-3.891-3.459v-.148c2.583-1.092 3.072-2.59 3.076-3.461-.008-1.26-.572-3.112-5.676-3.634-1.573-.116-3.095-.232-5.802-.224.148.514.152 4.429.144 5.142l-.004 2.569c-.004.437-.008 7.314-.157 8.516l1.516.014v-.002zm36.771.187c-.073-.801.074-9.241.074-9.987.301.38 10.57 9 12.495 10.26l.147-.052c.059-2.018.297-5.534.436-8.816.236-3.35.397-6.465.55-7.792l-3.875-.157c0 .976-.098 8.98-.098 9.934-.803-.652-10.205-8.607-12.457-10.277l-.163.073c-.155 1.386-.405 5.122-.625 8.737-.12 3.622-.363 7.091-.444 7.967l3.958.112.002-.002zm21.067.085c-.077-.453-.151-5.63-.151-7.357l.008-.813.163.006c1.494 1.968 6.983 7.855 7.276 8.243l3.152-2.707c-.87-.933-5.389-5.182-6.259-6.058 1.288-1.216 4.867-4.427 5.839-5.38l-2.928-2.565c-.509.622-5.782 6.067-7.092 7.593l-.157-.014v-.766c.006-2.059.1-6.488.167-6.861h-4.319c-.01.512.063 5.086.063 7.054l-.004 2.494c-.012 2.585-.085 6.483-.094 7.127l4.334.004h.002zM28.528 29.713l5.267 2.256-.636 1.529-4.865-1.64-4.87 2.515-4.519-1.987-4.653 2.272-5.014-2.388-4.758 1.945-.782-1.453 5.24-2.565 5.794 2.047 4.018-2.157 4.118 1.931 5.664-2.305h-.004zm-9.945-25.88l6.22 6.455-5.605-.91 7.478 7.397-7.973-1.618 7.645 7.522-8.663-1.84 1.159 7.072-3.604-.005.953-6.956-6.477 3.625 5.147-9.105-5.648 2.848 6.803-9.71-4.236 1.115 6.801-5.888v-.002zM3.105 0l-1.75.118L.049 9.43l.324 11.384-.175 11.228L0 39.717l10.315-.112 13.85.29 9.505-.737 3.824-.427-.315-16.505-1.225-9.765.664-11.06L12.928.14 3.104 0zm62.283 15.86c.007-1.709.013-3.298.013-3.786l-4.108-.008c.07.799.188 2.25.178 3.793v.81c-.006 4.132-.078 5.764-.92 7.002-.62.872-1.593 1.46-2.87 1.455-1.07-.006-2.1-.392-2.75-1.37-.88-1.199-1.082-2.774-1.07-6.152l.006-1.453c.008-2.006.077-3.203.196-3.741l-4.238.004c0 .488.002 2.248 0 3.223l-.004 1.179c0 5.394.366 7.012 1.503 8.642 1.685 2.392 4.42 2.676 6.066 2.684 2.536 0 4.551-.782 6.024-2.416 1.726-2.008 1.966-4.591 1.979-8.843l-.007-1.02.002-.002zm4.032 12.565c.339-.933 2.806-8.19 3.228-9.203h.03c.408.89 3.03 5.32 4.662 7.792l.1-.006c1.477-1.882 4.92-7.255 5.446-7.885.26.514 2.942 7.54 3.732 9.3l3.552-1.506c-.811-1.645-5.218-11.93-6.52-14.58l-.106.004c-.937 1.408-4.867 7.749-5.73 8.96-.686-1.067-4.484-7.552-5.633-9.46l-.136.008c-.858 1.904-5.672 14.452-6.115 15.344l3.493 1.232h-.002zm26.774-13.72c3.419.103 3.983 1.737 3.981 2.863-.004 2.057-2.003 3.333-3.991 3.74l.008-6.604h.002zm-.02 13.378a231.46 231.46 0 01.006-3.357l.008-.927c5.218-.86 8.158-3.774 8.164-6.806.002-2.53-2.076-3.864-4.835-4.415-1.736-.357-4.344-.493-7.481-.493.004.357.136 4.987.128 5.517l-.006 2.478c0 1.573-.075 7.083-.14 8.003h4.156zm14.123-7.717c.008-2.86 1.64-5.554 4.998-5.558 2.251.01 4.384 1.577 4.374 4.934 0 3.746-2.365 5.593-4.861 5.593-2.353 0-4.513-1.62-4.511-4.967m14.354 6.724c-1.669-.078-3.403-.181-5.226-.342l.006-.091c2.982-1.533 4.57-4.226 4.572-7.16.012-4.583-3.327-7.526-8.409-7.526-5.98.006-9.643 4.12-9.645 8.564-.014 2.047.805 4.14 2.63 5.634 2.309 1.904 5.571 1.97 5.856 1.971.214.002.833.047 1.797.232 2.565.496 5.456 1.167 7.921 1.67l.495-2.954.003.002zm17.212-11.233c-.005-1.708-.005-3.293-.005-3.783h-4.074c.006.79.073 2.248.067 3.787l-.006.805c0 4.135-.008 5.767-.893 7.005-.609.868-1.554 1.453-2.795 1.453-1.147 0-2.107-.394-2.746-1.37-.972-1.199-1.072-2.778-1.062-6.146v-1.463c.004-1.996.008-3.203.063-3.731h-4.119c0 .48-.053 2.242-.057 3.227v1.181c0 5.382.44 7.005 1.564 8.64 1.661 2.388 4.448 2.674 6.011 2.684 2.577-.01 4.588-.78 6.01-2.42 1.744-2.006 2.023-4.585 2.031-8.841l.006-1.026.005-.002zm7.027 5.946c.452-.88 1.984-3.975 2.483-4.837.408.706 2.027 3.659 2.594 4.618l-5.079.22h.002zm-3.205 6.514c.572-.882 1.784-3.516 2.002-3.961l7.384-.352c.277.344 2.037 3.3 2.516 4.315l3.604-2.042c-1.236-1.691-7.175-11.197-9.632-14.83l-.174.008c-1.57 2.36-8.121 13.486-9.064 15.06l3.364 1.802zm43.612-6.518c.453-.88 1.985-3.975 2.484-4.837.408.705 2.027 3.659 2.594 4.618l-5.08.22h.002zm-3.204 6.514c.572-.882 1.784-3.516 2.002-3.961l7.384-.352c.277.344 2.037 3.3 2.516 4.315l3.604-2.043c-1.236-1.69-7.175-11.196-9.633-14.83l-.173.008c-1.571 2.36-8.121 13.487-9.064 15.06l3.364 1.803z" fill="#fff"/></svg>